<?xml version="1.0" encoding="utf-8"?><!-- Generator: Iparigrafika Gear Generator by Abel Vincze http://geargenerator.com/ --><svg version="1.2" class="svggear" xmlns="http://www.w3.org/2000/svg" xmlns:xlink="http://www.w3.org/1999/xlink" x="0px" y="0px" width="450px" height="450px" viewBox="-225 -225 450 450" overflow="scroll" xml:space="preserve"><polygon id="gearpoly1" data-id="1" class="gear" fill="#ddd" stroke="#444" stroke-width="1" stroke-miterlimit="10" points="171.25,0 178.2284,-0.0003 178.3387,-0.0036 178.5335,-0.0135 178.8126,-0.0338 179.1757,-0.0681 179.6222,-0.1202 180.1515,-0.1935 180.7628,-0.2919 181.4552,-0.4188 182.2278,-0.5779 183.0794,-0.7727 184.0088,-1.0067 185.0147,-1.2835 186.0955,-1.6064 187.2498,-1.9788 188.4758,-2.4041 189.7718,-2.8856 191.1357,-3.4265 192.5657,-4.03 194.0597,-4.6992 195.6152,-5.4372 197.2302,-6.2469 198.902,-7.1314 200.6283,-8.0934 202.4063,-9.1357 204.2334,-10.261 206.1068,-11.4719 208.0235,-12.771 209.9805,-14.1607 211.9749,-15.6434 214.0034,-17.2213 216.0627,-18.8966 218.1497,-20.6714 220.2608,-22.5476 222.3927,-24.5271 223.4363,-26.4807 222.4715,-33.6371 220.9477,-35.2445 218.3678,-36.5888 215.8351,-37.8389 213.3527,-38.9977 210.9232,-40.0678 208.5493,-41.0521 206.2335,-41.9537 203.9782,-42.7755 201.7859,-43.5206 199.6588,-44.1922 197.5989,-44.7935 195.6083,-45.3277 193.6889,-45.7982 191.8425,-46.2083 190.0708,-46.5615 188.3753,-46.8611 186.7575,-47.1108 185.2188,-47.3141 183.7602,-47.4744 182.3831,-47.5955 181.0882,-47.6809 179.8765,-47.7344 178.7487,-47.7595 177.7055,-47.76 176.7473,-47.7395 175.8745,-47.7019 175.0874,-47.6507 174.3861,-47.5897 173.7705,-47.5227 173.2407,-47.4532 172.7964,-47.3851 172.4372,-47.3221 172.1626,-47.2677 171.9721,-47.2257 171.865,-47.1997 165.1356,-45.3519 158.2144,-65.5345 164.6615,-68.2054 164.7621,-68.2506 164.9382,-68.3343 165.1884,-68.4599 165.5107,-68.6305 165.9033,-68.8495 166.3642,-69.1198 166.8914,-69.4446 167.4825,-69.8268 168.1354,-70.2695 168.8476,-70.7753 169.6167,-71.3472 170.4401,-71.9878 171.3151,-72.6998 172.239,-73.4856 173.2089,-74.3477 174.222,-75.2884 175.2751,-76.3101 176.3653,-77.4149 177.4894,-78.6049 178.6442,-79.882 179.8263,-81.2481 181.0325,-82.705 182.2592,-84.2544 183.503,-85.8978 184.7604,-87.6367 186.0277,-89.4723 187.3014,-91.406 188.5776,-93.4389 189.8528,-95.5719 191.123,-97.806 192.3845,-100.1418 193.6334,-102.5801 194.8659,-105.1214 196.0779,-107.7661 196.2945,-109.9704 192.6645,-116.2127 190.6416,-117.1148 187.7436,-117.3694 184.9253,-117.5552 182.1884,-117.6757 179.5343,-117.7346 176.9644,-117.7356 174.4799,-117.6823 172.0818,-117.5785 169.7713,-117.428 167.549,-117.2344 165.4159,-117.0016 163.3724,-116.7334 161.419,-116.4336 159.5562,-116.1059 157.7842,-115.7541 156.1031,-115.3822 154.5129,-114.9937 153.0135,-114.5926 151.6047,-114.1826 150.286,-113.7675 149.057,-113.3509 147.9171,-112.9366 146.8655,-112.5282 145.9015,-112.1294 145.0241,-111.7439 144.2321,-111.375 143.5245,-111.0265 142.8999,-110.7018 142.3569,-110.4043 141.894,-110.1374 141.5095,-109.9045 141.2018,-109.7087 140.9689,-109.5535 140.809,-109.4417 140.72,-109.3767 135.21,-105.0943 121.092,-121.092 126.0263,-126.0268 126.1019,-126.107 126.2327,-126.2518 126.4157,-126.4635 126.6482,-126.7446 126.9271,-127.0971 127.2495,-127.5232 127.6122,-128.025 128.0121,-128.6044 128.4459,-129.2632 128.9103,-130.0031 129.402,-130.8258 129.9176,-131.7327 130.4535,-132.7253 131.0064,-133.8048 131.5726,-134.9725 132.1485,-136.2293 132.7305,-137.5763 133.3149,-139.0142 133.8981,-140.5437 134.4762,-142.1655 135.0456,-143.88 135.6023,-145.6876 136.1428,-147.5885 136.663,-149.5828 137.1592,-151.6705 137.6276,-153.8514 138.0643,-156.1253 138.4655,-158.4918 138.8273,-160.9505 139.1459,-163.5005 139.4175,-166.1414 139.6382,-168.872 139.8044,-171.6915 139.9121,-174.5987 139.2686,-176.718 133.5261,-181.0961 131.312,-181.1553 128.5371,-180.2815 125.8623,-179.3747 123.2876,-178.4386 120.813,-177.4774 118.4384,-176.4948 116.1633,-175.4948 113.9875,-174.4813 111.9105,-173.4579 109.9315,-172.4287 108.0497,-171.3973 106.2644,-170.3675 104.5745,-169.343 102.9789,-168.3274 101.4764,-167.3243 100.0656,-166.3373 98.7451,-165.3699 97.5134,-164.4255 96.3686,-163.5076 95.3092,-162.6194 94.3332,-161.7642 93.4386,-160.9452 92.6234,-160.1655 91.8853,-159.4282 91.2223,-158.7362 90.6317,-158.0924 90.1113,-157.4996 89.6586,-156.9606 89.2707,-156.4779 88.9452,-156.0542 88.6791,-155.6919 88.4697,-155.3933 88.314,-155.1607 88.209,-154.9963 88.1517,-154.9021 84.6999,-148.8371 65.5345,-158.2144 68.2048,-164.6617 68.2439,-164.7648 68.3093,-164.9486 68.3974,-165.2143 68.5046,-165.5629 68.6274,-165.9953 68.7622,-166.5123 68.9053,-167.1147 69.053,-167.803 69.2017,-168.5777 69.3476,-169.439 69.487,-170.3872 69.6163,-171.4224 69.7316,-172.5446 69.8292,-173.7535 69.9055,-175.049 69.9566,-176.4305 69.9788,-177.8977 69.9685,-179.4498 69.9219,-181.086 69.8354,-182.8056 69.7053,-184.6075 69.528,-186.4906 69.2998,-188.4536 69.0173,-190.4951 68.6768,-192.6138 68.275,-194.808 67.8082,-197.0759 67.2733,-199.4158 66.6666,-201.8257 65.9851,-204.3036 65.2254,-206.8474 64.3844,-209.4546 63.4589,-212.1231 62.4459,-214.8502 61.0404,-216.5619 54.0595,-218.4092 51.9913,-217.6166 49.7621,-215.7474 47.6379,-213.886 45.6174,-212.0359 43.699,-210.2009 41.8811,-208.3844 40.162,-206.5899 38.5397,-204.8208 37.0123,-203.0805 35.5778,-201.3723 34.234,-199.6993 32.9787,-198.0647 31.8095,-196.4714 30.724,-194.9225 29.7198,-193.4208 28.7941,-191.9691 27.9443,-190.57 27.1677,-189.2261 26.4614,-187.94 25.8225,-186.714 25.248,-185.5504 24.7349,-184.4514 24.2801,-183.4191 23.8805,-182.4554 23.5327,-181.5623 23.2335,-180.7416 22.9795,-179.9948 22.7675,-179.3235 22.5939,-178.7292 22.4553,-178.2131 22.3482,-177.7766 22.269,-177.4206 22.2141,-177.1461 22.18,-176.954 22.1631,-176.8451 21.295,-169.9208 0,-171.25 -0.0003,-178.2284 -0.0036,-178.3387 -0.0135,-178.5335 -0.0338,-178.8126 -0.0681,-179.1757 -0.1202,-179.6222 -0.1935,-180.1515 -0.2919,-180.7628 -0.4188,-181.4552 -0.5779,-182.2278 -0.7727,-183.0794 -1.0067,-184.0088 -1.2835,-185.0147 -1.6064,-186.0955 -1.9788,-187.2498 -2.4041,-188.4758 -2.8856,-189.7718 -3.4265,-191.1357 -4.03,-192.5657 -4.6992,-194.0597 -5.4372,-195.6152 -6.2469,-197.2302 -7.1314,-198.902 -8.0934,-200.6283 -9.1357,-202.4063 -10.261,-204.2334 -11.4719,-206.1068 -12.771,-208.0235 -14.1607,-209.9805 -15.6434,-211.9749 -17.2213,-214.0034 -18.8966,-216.0627 -20.6714,-218.1497 -22.5476,-220.2608 -24.5271,-222.3927 -26.4807,-223.4363 -33.6371,-222.4715 -35.2445,-220.9477 -36.5888,-218.3678 -37.8389,-215.8351 -38.9977,-213.3527 -40.0678,-210.9232 -41.0521,-208.5493 -41.9537,-206.2335 -42.7755,-203.9782 -43.5206,-201.7859 -44.1922,-199.6588 -44.7935,-197.5989 -45.3277,-195.6083 -45.7982,-193.6889 -46.2083,-191.8425 -46.5615,-190.0708 -46.8611,-188.3753 -47.1108,-186.7575 -47.3141,-185.2188 -47.4744,-183.7602 -47.5955,-182.3831 -47.6809,-181.0882 -47.7344,-179.8765 -47.7595,-178.7487 -47.76,-177.7055 -47.7395,-176.7473 -47.7019,-175.8745 -47.6507,-175.0874 -47.5897,-174.3861 -47.5227,-173.7705 -47.4532,-173.2407 -47.3851,-172.7964 -47.3221,-172.4372 -47.2677,-172.1626 -47.2257,-171.9721 -47.1997,-171.865 -45.3519,-165.1356 -65.5345,-158.2144 -68.2054,-164.6615 -68.2506,-164.7621 -68.3343,-164.9382 -68.4599,-165.1884 -68.6305,-165.5107 -68.8495,-165.9033 -69.1198,-166.3642 -69.4446,-166.8914 -69.8268,-167.4825 -70.2695,-168.1354 -70.7753,-168.8476 -71.3472,-169.6167 -71.9878,-170.4401 -72.6998,-171.3151 -73.4856,-172.239 -74.3477,-173.2089 -75.2884,-174.222 -76.3101,-175.2751 -77.4149,-176.3653 -78.6049,-177.4894 -79.882,-178.6442 -81.2481,-179.8263 -82.705,-181.0325 -84.2544,-182.2592 -85.8978,-183.503 -87.6367,-184.7604 -89.4723,-186.0277 -91.406,-187.3014 -93.4389,-188.5776 -95.5719,-189.8528 -97.806,-191.123 -100.1418,-192.3845 -102.5801,-193.6334 -105.1214,-194.8659 -107.7661,-196.0779 -109.9704,-196.2945 -116.2127,-192.6645 -117.1148,-190.6416 -117.3694,-187.7436 -117.5552,-184.9253 -117.6757,-182.1884 -117.7346,-179.5343 -117.7356,-176.9644 -117.6823,-174.4799 -117.5785,-172.0818 -117.428,-169.7713 -117.2344,-167.549 -117.0016,-165.4159 -116.7334,-163.3724 -116.4336,-161.419 -116.1059,-159.5562 -115.7541,-157.7842 -115.3822,-156.1031 -114.9937,-154.5129 -114.5926,-153.0135 -114.1826,-151.6047 -113.7675,-150.286 -113.3509,-149.057 -112.9366,-147.9171 -112.5282,-146.8655 -112.1294,-145.9015 -111.7439,-145.0241 -111.375,-144.2321 -111.0265,-143.5245 -110.7018,-142.8999 -110.4043,-142.3569 -110.1374,-141.894 -109.9045,-141.5095 -109.7087,-141.2018 -109.5535,-140.9689 -109.4417,-140.809 -109.3767,-140.72 -105.0943,-135.21 -121.092,-121.092 -126.0268,-126.0263 -126.107,-126.1019 -126.2518,-126.2327 -126.4635,-126.4157 -126.7446,-126.6482 -127.0971,-126.9271 -127.5232,-127.2495 -128.025,-127.6122 -128.6044,-128.0121 -129.2632,-128.4459 -130.0031,-128.9103 -130.8258,-129.402 -131.7327,-129.9176 -132.7253,-130.4535 -133.8048,-131.0064 -134.9725,-131.5726 -136.2293,-132.1485 -137.5763,-132.7305 -139.0142,-133.3149 -140.5437,-133.8981 -142.1655,-134.4762 -143.88,-135.0456 -145.6876,-135.6023 -147.5885,-136.1428 -149.5828,-136.663 -151.6705,-137.1592 -153.8514,-137.6276 -156.1253,-138.0643 -158.4918,-138.4655 -160.9505,-138.8273 -163.5005,-139.1459 -166.1414,-139.4175 -168.872,-139.6382 -171.6915,-139.8044 -174.5987,-139.9121 -176.718,-139.2686 -181.0961,-133.5261 -181.1553,-131.312 -180.2815,-128.5371 -179.3747,-125.8623 -178.4386,-123.2876 -177.4774,-120.813 -176.4948,-118.4384 -175.4948,-116.1633 -174.4813,-113.9875 -173.4579,-111.9105 -172.4287,-109.9315 -171.3973,-108.0497 -170.3675,-106.2644 -169.343,-104.5745 -168.3274,-102.9789 -167.3243,-101.4764 -166.3373,-100.0656 -165.3699,-98.7451 -164.4255,-97.5134 -163.5076,-96.3686 -162.6194,-95.3092 -161.7642,-94.3332 -160.9452,-93.4386 -160.1655,-92.6234 -159.4282,-91.8853 -158.7362,-91.2223 -158.0924,-90.6317 -157.4996,-90.1113 -156.9606,-89.6586 -156.4779,-89.2707 -156.0542,-88.9452 -155.6919,-88.6791 -155.3933,-88.4697 -155.1607,-88.314 -154.9963,-88.209 -154.9021,-88.1517 -148.8371,-84.6999 -158.2144,-65.5345 -164.6617,-68.2048 -164.7648,-68.2439 -164.9486,-68.3093 -165.2143,-68.3974 -165.5629,-68.5046 -165.9953,-68.6274 -166.5123,-68.7622 -167.1147,-68.9053 -167.803,-69.053 -168.5777,-69.2017 -169.439,-69.3476 -170.3872,-69.487 -171.4224,-69.6163 -172.5446,-69.7316 -173.7535,-69.8292 -175.049,-69.9055 -176.4305,-69.9566 -177.8977,-69.9788 -179.4498,-69.9685 -181.086,-69.9219 -182.8056,-69.8354 -184.6075,-69.7053 -186.4906,-69.528 -188.4536,-69.2998 -190.4951,-69.0173 -192.6138,-68.6768 -194.808,-68.275 -197.0759,-67.8082 -199.4158,-67.2733 -201.8257,-66.6666 -204.3036,-65.9851 -206.8474,-65.2254 -209.4546,-64.3844 -212.1231,-63.4589 -214.8502,-62.4459 -216.5619,-61.0404 -218.4092,-54.0595 -217.6166,-51.9913 -215.7474,-49.7621 -213.886,-47.6379 -212.0359,-45.6174 -210.2009,-43.699 -208.3844,-41.8811 -206.5899,-40.162 -204.8208,-38.5397 -203.0805,-37.0123 -201.3723,-35.5778 -199.6993,-34.234 -198.0647,-32.9787 -196.4714,-31.8095 -194.9225,-30.724 -193.4208,-29.7198 -191.9691,-28.7941 -190.57,-27.9443 -189.2261,-27.1677 -187.94,-26.4614 -186.714,-25.8225 -185.5504,-25.248 -184.4514,-24.7349 -183.4191,-24.2801 -182.4554,-23.8805 -181.5623,-23.5327 -180.7416,-23.2335 -179.9948,-22.9795 -179.3235,-22.7675 -178.7292,-22.5939 -178.2131,-22.4553 -177.7766,-22.3482 -177.4206,-22.269 -177.1461,-22.2141 -176.954,-22.18 -176.8451,-22.1631 -169.9208,-21.295 -171.25,0 -178.2284,0.0003 -178.3387,0.0036 -178.5335,0.0135 -178.8126,0.0338 -179.1757,0.0681 -179.6222,0.1202 -180.1515,0.1935 -180.7628,0.2919 -181.4552,0.4188 -182.2278,0.5779 -183.0794,0.7727 -184.0088,1.0067 -185.0147,1.2835 -186.0955,1.6064 -187.2498,1.9788 -188.4758,2.4041 -189.7718,2.8856 -191.1357,3.4265 -192.5657,4.03 -194.0597,4.6992 -195.6152,5.4372 -197.2302,6.2469 -198.902,7.1314 -200.6283,8.0934 -202.4063,9.1357 -204.2334,10.261 -206.1068,11.4719 -208.0235,12.771 -209.9805,14.1607 -211.9749,15.6434 -214.0034,17.2213 -216.0627,18.8966 -218.1497,20.6714 -220.2608,22.5476 -222.3927,24.5271 -223.4363,26.4807 -222.4715,33.6371 -220.9477,35.2445 -218.3678,36.5888 -215.8351,37.8389 -213.3527,38.9977 -210.9232,40.0678 -208.5493,41.0521 -206.2335,41.9537 -203.9782,42.7755 -201.7859,43.5206 -199.6588,44.1922 -197.5989,44.7935 -195.6083,45.3277 -193.6889,45.7982 -191.8425,46.2083 -190.0708,46.5615 -188.3753,46.8611 -186.7575,47.1108 -185.2188,47.3141 -183.7602,47.4744 -182.3831,47.5955 -181.0882,47.6809 -179.8765,47.7344 -178.7487,47.7595 -177.7055,47.76 -176.7473,47.7395 -175.8745,47.7019 -175.0874,47.6507 -174.3861,47.5897 -173.7705,47.5227 -173.2407,47.4532 -172.7964,47.3851 -172.4372,47.3221 -172.1626,47.2677 -171.9721,47.2257 -171.865,47.1997 -165.1356,45.3519 -158.2144,65.5345 -164.6615,68.2054 -164.7621,68.2506 -164.9382,68.3343 -165.1884,68.4599 -165.5107,68.6305 -165.9033,68.8495 -166.3642,69.1198 -166.8914,69.4446 -167.4825,69.8268 -168.1354,70.2695 -168.8476,70.7753 -169.6167,71.3472 -170.4401,71.9878 -171.3151,72.6998 -172.239,73.4856 -173.2089,74.3477 -174.222,75.2884 -175.2751,76.3101 -176.3653,77.4149 -177.4894,78.6049 -178.6442,79.882 -179.8263,81.2481 -181.0325,82.705 -182.2592,84.2544 -183.503,85.8978 -184.7604,87.6367 -186.0277,89.4723 -187.3014,91.406 -188.5776,93.4389 -189.8528,95.5719 -191.123,97.806 -192.3845,100.1418 -193.6334,102.5801 -194.8659,105.1214 -196.0779,107.7661 -196.2945,109.9704 -192.6645,116.2127 -190.6416,117.1148 -187.7436,117.3694 -184.9253,117.5552 -182.1884,117.6757 -179.5343,117.7346 -176.9644,117.7356 -174.4799,117.6823 -172.0818,117.5785 -169.7713,117.428 -167.549,117.2344 -165.4159,117.0016 -163.3724,116.7334 -161.419,116.4336 -159.5562,116.1059 -157.7842,115.7541 -156.1031,115.3822 -154.5129,114.9937 -153.0135,114.5926 -151.6047,114.1826 -150.286,113.7675 -149.057,113.3509 -147.9171,112.9366 -146.8655,112.5282 -145.9015,112.1294 -145.0241,111.7439 -144.2321,111.375 -143.5245,111.0265 -142.8999,110.7018 -142.3569,110.4043 -141.894,110.1374 -141.5095,109.9045 -141.2018,109.7087 -140.9689,109.5535 -140.809,109.4417 -140.72,109.3767 -135.21,105.0943 -121.092,121.092 -126.0263,126.0268 -126.1019,126.107 -126.2327,126.2518 -126.4157,126.4635 -126.6482,126.7446 -126.9271,127.0971 -127.2495,127.5232 -127.6122,128.025 -128.0121,128.6044 -128.4459,129.2632 -128.9103,130.0031 -129.402,130.8258 -129.9176,131.7327 -130.4535,132.7253 -131.0064,133.8048 -131.5726,134.9725 -132.1485,136.2293 -132.7305,137.5763 -133.3149,139.0142 -133.8981,140.5437 -134.4762,142.1655 -135.0456,143.88 -135.6023,145.6876 -136.1428,147.5885 -136.663,149.5828 -137.1592,151.6705 -137.6276,153.8514 -138.0643,156.1253 -138.4655,158.4918 -138.8273,160.9505 -139.1459,163.5005 -139.4175,166.1414 -139.6382,168.872 -139.8044,171.6915 -139.9121,174.5987 -139.2686,176.718 -133.5261,181.0961 -131.312,181.1553 -128.5371,180.2815 -125.8623,179.3747 -123.2876,178.4386 -120.813,177.4774 -118.4384,176.4948 -116.1633,175.4948 -113.9875,174.4813 -111.9105,173.4579 -109.9315,172.4287 -108.0497,171.3973 -106.2644,170.3675 -104.5745,169.343 -102.9789,168.3274 -101.4764,167.3243 -100.0656,166.3373 -98.7451,165.3699 -97.5134,164.4255 -96.3686,163.5076 -95.3092,162.6194 -94.3332,161.7642 -93.4386,160.9452 -92.6234,160.1655 -91.8853,159.4282 -91.2223,158.7362 -90.6317,158.0924 -90.1113,157.4996 -89.6586,156.9606 -89.2707,156.4779 -88.9452,156.0542 -88.6791,155.6919 -88.4697,155.3933 -88.314,155.1607 -88.209,154.9963 -88.1517,154.9021 -84.6999,148.8371 -65.5345,158.2144 -68.2048,164.6617 -68.2439,164.7648 -68.3093,164.9486 -68.3974,165.2143 -68.5046,165.5629 -68.6274,165.9953 -68.7622,166.5123 -68.9053,167.1147 -69.053,167.803 -69.2017,168.5777 -69.3476,169.439 -69.487,170.3872 -69.6163,171.4224 -69.7316,172.5446 -69.8292,173.7535 -69.9055,175.049 -69.9566,176.4305 -69.9788,177.8977 -69.9685,179.4498 -69.9219,181.086 -69.8354,182.8056 -69.7053,184.6075 -69.528,186.4906 -69.2998,188.4536 -69.0173,190.4951 -68.6768,192.6138 -68.275,194.808 -67.8082,197.0759 -67.2733,199.4158 -66.6666,201.8257 -65.9851,204.3036 -65.2254,206.8474 -64.3844,209.4546 -63.4589,212.1231 -62.4459,214.8502 -61.0404,216.5619 -54.0595,218.4092 -51.9913,217.6166 -49.7621,215.7474 -47.6379,213.886 -45.6174,212.0359 -43.699,210.2009 -41.8811,208.3844 -40.162,206.5899 -38.5397,204.8208 -37.0123,203.0805 -35.5778,201.3723 -34.234,199.6993 -32.9787,198.0647 -31.8095,196.4714 -30.724,194.9225 -29.7198,193.4208 -28.7941,191.9691 -27.9443,190.57 -27.1677,189.2261 -26.4614,187.94 -25.8225,186.714 -25.248,185.5504 -24.7349,184.4514 -24.2801,183.4191 -23.8805,182.4554 -23.5327,181.5623 -23.2335,180.7416 -22.9795,179.9948 -22.7675,179.3235 -22.5939,178.7292 -22.4553,178.2131 -22.3482,177.7766 -22.269,177.4206 -22.2141,177.1461 -22.18,176.954 -22.1631,176.8451 -21.295,169.9208 0,171.25 0.0003,178.2284 0.0036,178.3387 0.0135,178.5335 0.0338,178.8126 0.0681,179.1757 0.1202,179.6222 0.1935,180.1515 0.2919,180.7628 0.4188,181.4552 0.5779,182.2278 0.7727,183.0794 1.0067,184.0088 1.2835,185.0147 1.6064,186.0955 1.9788,187.2498 2.4041,188.4758 2.8856,189.7718 3.4265,191.1357 4.03,192.5657 4.6992,194.0597 5.4372,195.6152 6.2469,197.2302 7.1314,198.902 8.0934,200.6283 9.1357,202.4063 10.261,204.2334 11.4719,206.1068 12.771,208.0235 14.1607,209.9805 15.6434,211.9749 17.2213,214.0034 18.8966,216.0627 20.6714,218.1497 22.5476,220.2608 24.5271,222.3927 26.4807,223.4363 33.6371,222.4715 35.2445,220.9477 36.5888,218.3678 37.8389,215.8351 38.9977,213.3527 40.0678,210.9232 41.0521,208.5493 41.9537,206.2335 42.7755,203.9782 43.5206,201.7859 44.1922,199.6588 44.7935,197.5989 45.3277,195.6083 45.7982,193.6889 46.2083,191.8425 46.5615,190.0708 46.8611,188.3753 47.1108,186.7575 47.3141,185.2188 47.4744,183.7602 47.5955,182.3831 47.6809,181.0882 47.7344,179.8765 47.7595,178.7487 47.76,177.7055 47.7395,176.7473 47.7019,175.8745 47.6507,175.0874 47.5897,174.3861 47.5227,173.7705 47.4532,173.2407 47.3851,172.7964 47.3221,172.4372 47.2677,172.1626 47.2257,171.9721 47.1997,171.865 45.3519,165.1356 65.5345,158.2144 68.2054,164.6615 68.2506,164.7621 68.3343,164.9382 68.4599,165.1884 68.6305,165.5107 68.8495,165.9033 69.1198,166.3642 69.4446,166.8914 69.8268,167.4825 70.2695,168.1354 70.7753,168.8476 71.3472,169.6167 71.9878,170.4401 72.6998,171.3151 73.4856,172.239 74.3477,173.2089 75.2884,174.222 76.3101,175.2751 77.4149,176.3653 78.6049,177.4894 79.882,178.6442 81.2481,179.8263 82.705,181.0325 84.2544,182.2592 85.8978,183.503 87.6367,184.7604 89.4723,186.0277 91.406,187.3014 93.4389,188.5776 95.5719,189.8528 97.806,191.123 100.1418,192.3845 102.5801,193.6334 105.1214,194.8659 107.7661,196.0779 109.9704,196.2945 116.2127,192.6645 117.1148,190.6416 117.3694,187.7436 117.5552,184.9253 117.6757,182.1884 117.7346,179.5343 117.7356,176.9644 117.6823,174.4799 117.5785,172.0818 117.428,169.7713 117.2344,167.549 117.0016,165.4159 116.7334,163.3724 116.4336,161.419 116.1059,159.5562 115.7541,157.7842 115.3822,156.1031 114.9937,154.5129 114.5926,153.0135 114.1826,151.6047 113.7675,150.286 113.3509,149.057 112.9366,147.9171 112.5282,146.8655 112.1294,145.9015 111.7439,145.0241 111.375,144.2321 111.0265,143.5245 110.7018,142.8999 110.4043,142.3569 110.1374,141.894 109.9045,141.5095 109.7087,141.2018 109.5535,140.9689 109.4417,140.809 109.3767,140.72 105.0943,135.21 121.092,121.092 126.0268,126.0263 126.107,126.1019 126.2518,126.2327 126.4635,126.4157 126.7446,126.6482 127.0971,126.9271 127.5232,127.2495 128.025,127.6122 128.6044,128.0121 129.2632,128.4459 130.0031,128.9103 130.8258,129.402 131.7327,129.9176 132.7253,130.4535 133.8048,131.0064 134.9725,131.5726 136.2293,132.1485 137.5763,132.7305 139.0142,133.3149 140.5437,133.8981 142.1655,134.4762 143.88,135.0456 145.6876,135.6023 147.5885,136.1428 149.5828,136.663 151.6705,137.1592 153.8514,137.6276 156.1253,138.0643 158.4918,138.4655 160.9505,138.8273 163.5005,139.1459 166.1414,139.4175 168.872,139.6382 171.6915,139.8044 174.5987,139.9121 176.718,139.2686 181.0961,133.5261 181.1553,131.312 180.2815,128.5371 179.3747,125.8623 178.4386,123.2876 177.4774,120.813 176.4948,118.4384 175.4948,116.1633 174.4813,113.9875 173.4579,111.9105 172.4287,109.9315 171.3973,108.0497 170.3675,106.2644 169.343,104.5745 168.3274,102.9789 167.3243,101.4764 166.3373,100.0656 165.3699,98.7451 164.4255,97.5134 163.5076,96.3686 162.6194,95.3092 161.7642,94.3332 160.9452,93.4386 160.1655,92.6234 159.4282,91.8853 158.7362,91.2223 158.0924,90.6317 157.4996,90.1113 156.9606,89.6586 156.4779,89.2707 156.0542,88.9452 155.6919,88.6791 155.3933,88.4697 155.1607,88.314 154.9963,88.209 154.9021,88.1517 148.8371,84.6999 158.2144,65.5345 164.6617,68.2048 164.7648,68.2439 164.9486,68.3093 165.2143,68.3974 165.5629,68.5046 165.9953,68.6274 166.5123,68.7622 167.1147,68.9053 167.803,69.053 168.5777,69.2017 169.439,69.3476 170.3872,69.487 171.4224,69.6163 172.5446,69.7316 173.7535,69.8292 175.049,69.9055 176.4305,69.9566 177.8977,69.9788 179.4498,69.9685 181.086,69.9219 182.8056,69.8354 184.6075,69.7053 186.4906,69.528 188.4536,69.2998 190.4951,69.0173 192.6138,68.6768 194.808,68.275 197.0759,67.8082 199.4158,67.2733 201.8257,66.6666 204.3036,65.9851 206.8474,65.2254 209.4546,64.3844 212.1231,63.4589 214.8502,62.4459 216.5619,61.0404 218.4092,54.0595 217.6166,51.9913 215.7474,49.7621 213.886,47.6379 212.0359,45.6174 210.2009,43.699 208.3844,41.8811 206.5899,40.162 204.8208,38.5397 203.0805,37.0123 201.3723,35.5778 199.6993,34.234 198.0647,32.9787 196.4714,31.8095 194.9225,30.724 193.4208,29.7198 191.9691,28.7941 190.57,27.9443 189.2261,27.1677 187.94,26.4614 186.714,25.8225 185.5504,25.248 184.4514,24.7349 183.4191,24.2801 182.4554,23.8805 181.5623,23.5327 180.7416,23.2335 179.9948,22.9795 179.3235,22.7675 178.7292,22.5939 178.2131,22.4553 177.7766,22.3482 177.4206,22.269 177.1461,22.2141 176.954,22.18 176.8451,22.1631 169.9208,21.295 "/><g class="guides"><polyline fill="none" stroke="#444" stroke-width="0.5" stroke-miterlimit="10" points="10,0 -10,0"/><polyline fill="none" stroke="#444" stroke-width="0.5" stroke-miterlimit="10" points="0,10 0,-10"/></g><circle fill="#c00" class="firstmarker" stroke="none" stroke-miterlimit="10" cx="198.2067" cy="-26.7225" r="9.8125"/><g class="geartext"><g class="text"><polyline fill="none" stroke="#444" stroke-width="0.5" stroke-linecap="square" stroke-miterlimit="1"  points="11.86 -140.75 8.87 -140.97 5.87 -141.13 2.87 -141.22 -0.13 -141.25 "/><polyline fill="none" stroke="#444" stroke-width="0.5" stroke-linecap="square" stroke-miterlimit="1"  points="5.62 -135.13 6.12 -147.12 "/><polyline fill="none" stroke="#444" stroke-width="0.5" stroke-linecap="square" stroke-miterlimit="1"  points="12.36 -146.73 9.06 -143.97 5.87 -141.13 2.81 -138.22 -0.12 -135.25 "/><polyline fill="none" stroke="#444" stroke-width="0.5" stroke-linecap="square" stroke-miterlimit="1"  points="11.36 -134.77 8.68 -137.98 5.87 -141.13 2.94 -144.22 -0.13 -147.25 "/><polyline fill="none" stroke="#444" stroke-width="0.5" stroke-linecap="square" stroke-miterlimit="1"  points="18.58 -146.07 22.12 -148.61 19.47 -130.81 "/><polyline fill="none" stroke="#444" stroke-width="0.5" stroke-linecap="square" stroke-miterlimit="1"  points="22.25 -130.37 19.47 -130.81 16.69 -131.19 "/><polyline fill="none" stroke="#444" stroke-width="0.5" stroke-linecap="square" stroke-miterlimit="1"  points="58.88 -138.23 51.82 -121.67 50.9 -126.92 49.78 -132.19 48.46 -137.46 46.94 -142.73 41.31 -125.63 "/><polyline fill="none" stroke="#444" stroke-width="0.5" stroke-linecap="square" stroke-miterlimit="1"  points="72.93 -124.45 70.27 -125.97 67.58 -127.44 64.86 -128.84 62.11 -130.19 "/><polyline fill="none" stroke="#444" stroke-width="0.5" stroke-linecap="square" stroke-miterlimit="1"  points="69.9 -119.28 67.35 -120.73 64.77 -122.14 62.16 -123.49 59.53 -124.78 "/><polyline fill="none" stroke="#444" stroke-width="0.5" stroke-linecap="square" stroke-miterlimit="1"  points="79.78 -123.77 84.07 -124.53 74 -109.61 "/><polyline fill="none" stroke="#444" stroke-width="0.5" stroke-linecap="square" stroke-miterlimit="1"  points="76.31 -108.01 74 -109.61 71.65 -111.16 "/><polyline fill="none" stroke="#444" stroke-width="0.5" stroke-linecap="square" stroke-miterlimit="1"  points="86.33 -111.8 88.68 -109.94 91 -108.03 93.27 -106.08 93.47 -101.86 91.44 -99.65 87.33 -99.32 85.2 -101.15 83.03 -102.94 82.66 -107.05 88.16 -114.18 92.45 -114.61 96.79 -114.92 99.21 -112.84 "/><polyline fill="none" stroke="#444" stroke-width="0.5" stroke-linecap="square" stroke-miterlimit="1"  points="109.86 -88.78 111.72 -86.42 113.53 -84.03 115.29 -81.6 119.49 -80.82 121.97 -82.5 122.64 -86.8 120.77 -89.39 118.84 -91.93 116.86 -94.43 102.86 -83.12 "/><polyline fill="none" stroke="#444" stroke-width="0.5" stroke-linecap="square" stroke-miterlimit="1"  points="112.59 -69.37 122.81 -75.67 "/><polyline fill="none" stroke="#444" stroke-width="0.5" stroke-linecap="square" stroke-miterlimit="1"  points="125.36 -77.24 127.92 -78.82 "/><polyline fill="none" stroke="#444" stroke-width="0.5" stroke-linecap="square" stroke-miterlimit="1"  points="123.23 -55.74 119.31 -57.05 120.75 -60.92 134.14 -67.68 "/><polyline fill="none" stroke="#444" stroke-width="0.5" stroke-linecap="square" stroke-miterlimit="1"  points="131.43 -59.45 130.14 -62.23 128.79 -64.98 127.38 -67.7 125.91 -70.39 "/><polyline fill="none" stroke="#444" stroke-width="0.5" stroke-linecap="square" stroke-miterlimit="1"  points="126.45 -38.75 125.6 -41.42 124.69 -44.08 123.72 -46.72 125.49 -50.46 131.05 -52.69 134.95 -50.96 136 -48.08 136.99 -45.18 137.92 -42.26 "/><polyline fill="none" stroke="#444" stroke-width="0.5" stroke-linecap="square" stroke-miterlimit="1"  points="133.78 -34.86 137.41 -32.7 141.01 -30.41 141.62 -27.41 139.22 -23.88 130.35 -22.36 "/><polyline fill="none" stroke="#444" stroke-width="0.5" stroke-linecap="square" stroke-miterlimit="1"  points="127.98 -33.34 145.4 -37.88 "/><polyline fill="none" stroke="#444" stroke-width="0.5" stroke-linecap="square" stroke-miterlimit="1"  points="132.22 -2.81 132.25 0 132.22 2.81 132.13 5.62 134.98 8.61 146.95 9.38 150.11 6.38 150.22 3.19 150.25 0 150.22 -3.19 "/><polyline fill="none" stroke="#444" stroke-width="0.5" stroke-linecap="square" stroke-miterlimit="1"  points="150.25 0 132.25 0 "/><polyline fill="none" stroke="#444" stroke-width="0.5" stroke-linecap="square" stroke-miterlimit="1"  points="141.62 27.41 142.17 24.39 142.66 21.37 143.08 18.33 143.44 15.29 "/><polyline fill="none" stroke="#444" stroke-width="0.5" stroke-linecap="square" stroke-miterlimit="1"  points="135.73 26.27 136.26 23.38 136.72 20.48 137.13 17.57 137.47 14.65 "/><polyline fill="none" stroke="#444" stroke-width="0.5" stroke-linecap="square" stroke-miterlimit="1"  points="131.29 43.3 132.18 40.5 133.01 37.69 133.78 34.86 134.49 32.01 137.65 35.86 140.71 39.87 143.66 44.02 126.45 38.75 "/><polyline fill="none" stroke="#444" stroke-width="0.5" stroke-linecap="square" stroke-miterlimit="1"  points="126.11 63.62 124.73 66.29 123.29 68.92 121.8 71.53 122.81 75.67 125.36 77.24 129.56 76.08 131.15 73.31 132.68 70.51 134.14 67.68 118.07 59.57 "/><polyline fill="none" stroke="#444" stroke-width="0.5" stroke-linecap="square" stroke-miterlimit="1"  points="112.2 90.66 114.1 88.26 115.95 85.82 117.74 83.34 119.49 80.82 "/><polyline fill="none" stroke="#444" stroke-width="0.5" stroke-linecap="square" stroke-miterlimit="1"  points="107.53 86.89 109.35 84.59 111.12 82.25 112.84 79.87 114.52 77.45 "/><polyline fill="none" stroke="#444" stroke-width="0.5" stroke-linecap="square" stroke-miterlimit="1"  points="95.62 99.85 97.71 97.8 99.77 95.7 101.78 93.56 103.74 91.38 104.72 96.27 105.54 101.24 106.2 106.29 93.47 93.56 "/><polyline fill="none" stroke="#444" stroke-width="0.5" stroke-linecap="square" stroke-miterlimit="1"  points="81.5 115.37 79.03 117.07 76.53 118.72 73.99 120.32 72.93 124.45 74.45 127.04 78.7 127.99 81.4 126.29 84.07 124.53 86.69 122.72 76.31 108.01 "/><polyline fill="none" stroke="#444" stroke-width="0.5" stroke-linecap="square" stroke-miterlimit="1"  points="61.96 116.84 64.77 122.14 64.86 128.84 64.69 135.61 59.33 131.48 54.17 127.19 51.82 121.67 "/><polyline fill="none" stroke="#444" stroke-width="0.5" stroke-linecap="square" stroke-miterlimit="1"  points="64.77 122.14 62.16 123.49 59.53 124.78 56.86 126.01 54.17 127.19 "/><polyline fill="none" stroke="#444" stroke-width="0.5" stroke-linecap="square" stroke-miterlimit="1"  points="39.2 138.82 42.14 137.96 45.06 137.03 47.96 136.04 50.84 134.99 "/><polyline fill="none" stroke="#444" stroke-width="0.5" stroke-linecap="square" stroke-miterlimit="1"  points="37.57 133.05 40.39 132.22 43.19 131.33 45.97 130.38 48.72 129.38 "/><polyline fill="none" stroke="#444" stroke-width="0.5" stroke-linecap="square" stroke-miterlimit="1"  points="19.47 130.81 22.25 130.37 25.01 129.86 27.76 129.3 30.5 128.68 31.89 134.52 29.65 138.1 26.71 138.7 23.76 139.24 21.24 142.68 21.68 145.64 25.28 148.11 28.42 147.54 31.54 146.9 33.96 143.28 "/><polyline fill="none" stroke="#444" stroke-width="0.5" stroke-linecap="square" stroke-miterlimit="1"  points="15.79 149.42 12.62 149.72 9.43 149.95 6.25 150.12 3.06 150.22 5.87 141.13 8.3 131.99 "/></g></g><g class="guides gearguides" opacity="0.2"><circle class="pitch" fill="none" stroke="#f00" stroke-miterlimit="10" cx="0" cy="0" r="200"/><circle class="outer" fill="none" stroke="#ccc" stroke-miterlimit="10" stroke-dasharray="2,2" cx="0" cy="0" r="225"/><circle class="base" fill="none" stroke="#00f" stroke-miterlimit="10" stroke-dasharray="2,2" cx="0" cy="0" r="178.2"/></g></svg>