<?xml version="1.0" encoding="utf-8"?><!-- Generator: Iparigrafika Gear Generator by Abel Vincze http://geargenerator.com/ --><svg version="1.2" class="svggear" xmlns="http://www.w3.org/2000/svg" xmlns:xlink="http://www.w3.org/1999/xlink" x="0px" y="0px" width="184px" height="184px" viewBox="-92 -92 184 184" overflow="scroll" xml:space="preserve"><polygon id="gearpoly5" data-id="5" class="gear" fill="#ddd" stroke="#444" stroke-width="1" stroke-miterlimit="10" points="73.75,0 78.3196,-0.0001 78.3554,-0.0011 78.415,-0.0037 78.4983,-0.0089 78.6053,-0.0173 78.7359,-0.0299 78.89,-0.0475 79.0673,-0.0709 79.2679,-0.1009 79.4913,-0.1384 79.7376,-0.184 80.0064,-0.2388 80.2975,-0.3033 80.6106,-0.3785 80.9455,-0.4652 81.3017,-0.564 81.6791,-0.6758 82.0772,-0.8014 82.4957,-0.9414 82.9342,-1.0967 83.3922,-1.268 83.8693,-1.456 84.3652,-1.6614 84.8792,-1.885 85.411,-2.1274 85.96,-2.3893 86.5257,-2.6714 87.1075,-2.9743 87.705,-3.2987 88.3174,-3.6452 88.9442,-4.0145 89.5849,-4.4071 90.2387,-4.8237 90.905,-5.2648 91.4877,-5.725 90.9961,-11.0675 90.3392,-11.4136 89.6036,-11.7257 88.8847,-12.0159 88.1832,-12.2851 87.4995,-12.5337 86.8341,-12.7627 86.1875,-12.9726 85.5601,-13.1643 84.9524,-13.3384 84.3649,-13.4957 83.7978,-13.637 83.2516,-13.7629 82.7266,-13.8744 82.2231,-13.9722 81.7415,-14.057 81.2821,-14.1297 80.8451,-14.191 80.4308,-14.2418 80.0393,-14.2829 79.671,-14.315 79.3259,-14.3391 79.0044,-14.3559 78.7064,-14.3663 78.4321,-14.371 78.1816,-14.371 77.9551,-14.367 77.7524,-14.3599 77.5738,-14.3505 77.4191,-14.3397 77.2884,-14.3283 77.1817,-14.3171 77.0988,-14.3069 77.0397,-14.2986 77.0044,-14.293 72.5115,-13.4592 70.1404,-22.79 74.4864,-24.2022 74.5201,-24.2142 74.5759,-24.2351 74.6536,-24.2658 74.7527,-24.3069 74.873,-24.3592 75.0141,-24.4235 75.1756,-24.5006 75.357,-24.5911 75.558,-24.6958 75.7781,-24.8153 76.0168,-24.9504 76.2737,-25.1018 76.5483,-25.2701 76.84,-25.4559 77.1483,-25.66 77.4726,-25.883 77.8124,-26.1254 78.1672,-26.3879 78.5362,-26.6711 78.9188,-26.9756 79.3145,-27.3018 79.7226,-27.6504 80.1424,-28.0219 80.5733,-28.4167 81.0145,-28.8354 81.4653,-29.2785 81.9251,-29.7464 82.393,-30.2396 82.8684,-30.7584 83.3504,-31.3033 83.8384,-31.8747 84.3315,-32.4729 84.8289,-33.0983 85.2409,-33.716 83.1224,-38.6452 82.3907,-38.7713 81.5946,-38.8408 80.8213,-38.8947 80.0709,-38.9339 79.3438,-38.9591 78.6402,-38.9712 77.9604,-38.9711 77.3045,-38.9595 76.6728,-38.9373 76.0654,-38.9053 75.4824,-38.8645 74.924,-38.8155 74.3902,-38.7593 73.8812,-38.6967 73.397,-38.6285 72.9376,-38.5557 72.503,-38.479 72.0932,-38.3992 71.7083,-38.3173 71.348,-38.2341 71.0124,-38.1504 70.7014,-38.067 70.4148,-37.9847 70.1525,-37.9045 69.9143,-37.8271 69.7,-37.7533 69.5095,-37.6839 69.3425,-37.6198 69.1987,-37.5617 69.078,-37.5104 68.9799,-37.4668 68.9042,-37.4315 68.8506,-37.4054 68.8187,-37.3892 64.8034,-35.2078 59.665,-43.3492 63.3618,-46.0352 63.3902,-46.0571 63.4369,-46.0942 63.5013,-46.1473 63.5829,-46.2171 63.6811,-46.304 63.7954,-46.4088 63.9251,-46.532 64.0697,-46.6741 64.2285,-46.8358 64.4009,-47.0175 64.5862,-47.2197 64.7838,-47.4431 64.9929,-47.688 65.2128,-47.9549 65.443,-48.2443 65.6826,-48.5565 65.9308,-48.8921 66.1871,-49.2514 66.4505,-49.6348 66.7204,-50.0425 66.9959,-50.4751 67.2763,-50.9327 67.5608,-51.4157 67.8485,-51.9244 68.1387,-52.459 68.4306,-53.0197 68.7232,-53.6068 69.0159,-54.2204 69.3076,-54.8607 69.5977,-55.5279 69.8852,-56.2221 70.1693,-56.9434 70.4491,-57.6919 70.6501,-58.4067 67.1121,-62.44 66.3772,-62.3339 65.5986,-62.1539 64.8464,-61.9662 64.1207,-61.7716 63.4214,-61.5709 62.7485,-61.365 62.102,-61.1548 61.4818,-60.9411 60.8879,-60.7248 60.32,-60.5067 59.7782,-60.2876 59.2623,-60.0685 58.772,-59.8501 58.3073,-59.6333 57.8678,-59.4188 57.4534,-59.2076 57.0638,-59.0003 56.6987,-58.7979 56.3579,-58.601 56.041,-58.4105 55.7477,-58.2272 55.4777,-58.0518 55.2305,-57.885 55.0058,-57.7276 54.8032,-57.5804 54.6223,-57.444 54.4625,-57.3191 54.3235,-57.2065 54.2047,-57.1069 54.1057,-57.0208 54.0259,-56.949 53.9648,-56.8921 53.9219,-56.8506 53.8966,-56.8254 50.7519,-53.5099 43.3492,-59.665 46.035,-63.362 46.0553,-63.3915 46.0881,-63.4413 46.133,-63.5117 46.189,-63.6032 46.2556,-63.7163 46.3319,-63.8513 46.4172,-64.0085 46.5108,-64.1884 46.6119,-64.3912 46.7197,-64.6173 46.8334,-64.8669 46.9523,-65.1403 47.0755,-65.4379 47.2022,-65.7597 47.3317,-66.106 47.463,-66.477 47.5954,-66.8729 47.7281,-67.2938 47.8602,-67.7398 47.9908,-68.211 48.1192,-68.7075 48.2445,-69.2294 48.3658,-69.7767 48.4822,-70.3494 48.5931,-70.9475 48.6973,-71.5709 48.7943,-72.2197 48.883,-72.8937 48.9626,-73.5929 49.0323,-74.3171 49.0912,-75.0661 49.1385,-75.8399 49.1733,-76.6383 49.1435,-77.3802 44.5324,-80.1227 43.8662,-79.7947 43.1814,-79.383 42.524,-78.972 41.8939,-78.5627 41.2909,-78.1557 40.7146,-77.7519 40.1646,-77.3522 39.6408,-76.9573 39.1428,-76.5681 38.6702,-76.1852 38.2226,-75.8094 37.7996,-75.4416 37.4008,-75.0824 37.0258,-74.7325 36.6741,-74.3928 36.3453,-74.0638 36.0388,-73.7463 35.7541,-73.441 35.4908,-73.1484 35.2483,-72.8693 35.026,-72.6044 34.8234,-72.3541 34.6399,-72.1191 34.4748,-71.9 34.3276,-71.6973 34.1977,-71.5117 34.0843,-71.3436 33.9869,-71.1935 33.9047,-71.062 33.8372,-70.9496 33.7835,-70.8566 33.743,-70.7836 33.715,-70.731 33.6987,-70.6991 31.7324,-66.5741 22.79,-70.1404 24.202,-74.4865 24.2121,-74.5208 24.228,-74.5782 24.2489,-74.6591 24.2739,-74.7635 24.3023,-74.8916 24.3331,-75.0435 24.3657,-75.2194 24.3991,-75.4194 24.4326,-75.6435 24.4653,-75.8918 24.4963,-76.1644 24.5248,-76.4612 24.55,-76.7822 24.5711,-77.1275 24.5872,-77.4968 24.5975,-77.8903 24.6011,-78.3077 24.5972,-78.749 24.585,-79.214 24.5636,-79.7025 24.5323,-80.2144 24.4901,-80.7495 24.4364,-81.3074 24.3702,-81.8881 24.2908,-82.4911 24.1973,-83.1163 24.089,-83.7633 23.9651,-84.4317 23.8247,-85.1213 23.6672,-85.8315 23.4918,-86.5622 23.2977,-87.3127 23.0841,-88.0827 22.8265,-88.7791 17.5935,-89.9625 17.0614,-89.4447 16.5372,-88.8415 16.0391,-88.2475 15.5663,-87.6635 15.1185,-87.0901 14.6952,-86.528 14.2957,-85.9779 13.9196,-85.4405 13.5662,-84.9164 13.235,-84.4062 12.9254,-83.9105 12.6368,-83.4299 12.3686,-82.9651 12.12,-82.5165 11.8905,-82.0847 11.6794,-81.6702 11.4861,-81.2735 11.3097,-80.8951 11.1497,-80.5356 11.0053,-80.1952 10.8758,-79.8745 10.7604,-79.5738 10.6585,-79.2936 10.5692,-79.0342 10.4918,-78.796 10.4256,-78.5793 10.3697,-78.3844 10.3234,-78.2116 10.2859,-78.0612 10.2564,-77.9333 10.2341,-77.8283 10.2182,-77.7464 10.2078,-77.6877 10.2022,-77.6523 9.6068,-73.1216 0,-73.75 -0.0001,-78.3196 -0.0011,-78.3554 -0.0037,-78.415 -0.0089,-78.4983 -0.0173,-78.6053 -0.0299,-78.7359 -0.0475,-78.89 -0.0709,-79.0673 -0.1009,-79.2679 -0.1384,-79.4913 -0.184,-79.7376 -0.2388,-80.0064 -0.3033,-80.2975 -0.3785,-80.6106 -0.4652,-80.9455 -0.564,-81.3017 -0.6758,-81.6791 -0.8014,-82.0772 -0.9414,-82.4957 -1.0967,-82.9342 -1.268,-83.3922 -1.456,-83.8693 -1.6614,-84.3652 -1.885,-84.8792 -2.1274,-85.411 -2.3893,-85.96 -2.6714,-86.5257 -2.9743,-87.1075 -3.2987,-87.705 -3.6452,-88.3174 -4.0145,-88.9442 -4.4071,-89.5849 -4.8237,-90.2387 -5.2648,-90.905 -5.725,-91.4877 -11.0675,-90.9961 -11.4136,-90.3392 -11.7257,-89.6036 -12.0159,-88.8847 -12.2851,-88.1832 -12.5337,-87.4995 -12.7627,-86.8341 -12.9726,-86.1875 -13.1643,-85.5601 -13.3384,-84.9524 -13.4957,-84.3649 -13.637,-83.7978 -13.7629,-83.2516 -13.8744,-82.7266 -13.9722,-82.2231 -14.057,-81.7415 -14.1297,-81.2821 -14.191,-80.8451 -14.2418,-80.4308 -14.2829,-80.0393 -14.315,-79.671 -14.3391,-79.3259 -14.3559,-79.0044 -14.3663,-78.7064 -14.371,-78.4321 -14.371,-78.1816 -14.367,-77.9551 -14.3599,-77.7524 -14.3505,-77.5738 -14.3397,-77.4191 -14.3283,-77.2884 -14.3171,-77.1817 -14.3069,-77.0988 -14.2986,-77.0397 -14.293,-77.0044 -13.4592,-72.5115 -22.79,-70.1404 -24.2022,-74.4864 -24.2142,-74.5201 -24.2351,-74.5759 -24.2658,-74.6536 -24.3069,-74.7527 -24.3592,-74.873 -24.4235,-75.0141 -24.5006,-75.1756 -24.5911,-75.357 -24.6958,-75.558 -24.8153,-75.7781 -24.9504,-76.0168 -25.1018,-76.2737 -25.2701,-76.5483 -25.4559,-76.84 -25.66,-77.1483 -25.883,-77.4726 -26.1254,-77.8124 -26.3879,-78.1672 -26.6711,-78.5362 -26.9756,-78.9188 -27.3018,-79.3145 -27.6504,-79.7226 -28.0219,-80.1424 -28.4167,-80.5733 -28.8354,-81.0145 -29.2785,-81.4653 -29.7464,-81.9251 -30.2396,-82.393 -30.7584,-82.8684 -31.3033,-83.3504 -31.8747,-83.8384 -32.4729,-84.3315 -33.0983,-84.8289 -33.716,-85.2409 -38.6452,-83.1224 -38.7713,-82.3907 -38.8408,-81.5946 -38.8947,-80.8213 -38.9339,-80.0709 -38.9591,-79.3438 -38.9712,-78.6402 -38.9711,-77.9604 -38.9595,-77.3045 -38.9373,-76.6728 -38.9053,-76.0654 -38.8645,-75.4824 -38.8155,-74.924 -38.7593,-74.3902 -38.6967,-73.8812 -38.6285,-73.397 -38.5557,-72.9376 -38.479,-72.503 -38.3992,-72.0932 -38.3173,-71.7083 -38.2341,-71.348 -38.1504,-71.0124 -38.067,-70.7014 -37.9847,-70.4148 -37.9045,-70.1525 -37.8271,-69.9143 -37.7533,-69.7 -37.6839,-69.5095 -37.6198,-69.3425 -37.5617,-69.1987 -37.5104,-69.078 -37.4668,-68.9799 -37.4315,-68.9042 -37.4054,-68.8506 -37.3892,-68.8187 -35.2078,-64.8034 -43.3492,-59.665 -46.0352,-63.3618 -46.0571,-63.3902 -46.0942,-63.4369 -46.1473,-63.5013 -46.2171,-63.5829 -46.304,-63.6811 -46.4088,-63.7954 -46.532,-63.9251 -46.6741,-64.0697 -46.8358,-64.2285 -47.0175,-64.4009 -47.2197,-64.5862 -47.4431,-64.7838 -47.688,-64.9929 -47.9549,-65.2128 -48.2443,-65.443 -48.5565,-65.6826 -48.8921,-65.9308 -49.2514,-66.1871 -49.6348,-66.4505 -50.0425,-66.7204 -50.4751,-66.9959 -50.9327,-67.2763 -51.4157,-67.5608 -51.9244,-67.8485 -52.459,-68.1387 -53.0197,-68.4306 -53.6068,-68.7232 -54.2204,-69.0159 -54.8607,-69.3076 -55.5279,-69.5977 -56.2221,-69.8852 -56.9434,-70.1693 -57.6919,-70.4491 -58.4067,-70.6501 -62.44,-67.1121 -62.3339,-66.3772 -62.1539,-65.5986 -61.9662,-64.8464 -61.7716,-64.1207 -61.5709,-63.4214 -61.365,-62.7485 -61.1548,-62.102 -60.9411,-61.4818 -60.7248,-60.8879 -60.5067,-60.32 -60.2876,-59.7782 -60.0685,-59.2623 -59.8501,-58.772 -59.6333,-58.3073 -59.4188,-57.8678 -59.2076,-57.4534 -59.0003,-57.0638 -58.7979,-56.6987 -58.601,-56.3579 -58.4105,-56.041 -58.2272,-55.7477 -58.0518,-55.4777 -57.885,-55.2305 -57.7276,-55.0058 -57.5804,-54.8032 -57.444,-54.6223 -57.3191,-54.4625 -57.2065,-54.3235 -57.1069,-54.2047 -57.0208,-54.1057 -56.949,-54.0259 -56.8921,-53.9648 -56.8506,-53.9219 -56.8254,-53.8966 -53.5099,-50.7519 -59.665,-43.3492 -63.362,-46.035 -63.3915,-46.0553 -63.4413,-46.0881 -63.5117,-46.133 -63.6032,-46.189 -63.7163,-46.2556 -63.8513,-46.3319 -64.0085,-46.4172 -64.1884,-46.5108 -64.3912,-46.6119 -64.6173,-46.7197 -64.8669,-46.8334 -65.1403,-46.9523 -65.4379,-47.0755 -65.7597,-47.2022 -66.106,-47.3317 -66.477,-47.463 -66.8729,-47.5954 -67.2938,-47.7281 -67.7398,-47.8602 -68.211,-47.9908 -68.7075,-48.1192 -69.2294,-48.2445 -69.7767,-48.3658 -70.3494,-48.4822 -70.9475,-48.5931 -71.5709,-48.6973 -72.2197,-48.7943 -72.8937,-48.883 -73.5929,-48.9626 -74.3171,-49.0323 -75.0661,-49.0912 -75.8399,-49.1385 -76.6383,-49.1733 -77.3802,-49.1435 -80.1227,-44.5324 -79.7947,-43.8662 -79.383,-43.1814 -78.972,-42.524 -78.5627,-41.8939 -78.1557,-41.2909 -77.7519,-40.7146 -77.3522,-40.1646 -76.9573,-39.6408 -76.5681,-39.1428 -76.1852,-38.6702 -75.8094,-38.2226 -75.4416,-37.7996 -75.0824,-37.4008 -74.7325,-37.0258 -74.3928,-36.6741 -74.0638,-36.3453 -73.7463,-36.0388 -73.441,-35.7541 -73.1484,-35.4908 -72.8693,-35.2483 -72.6044,-35.026 -72.3541,-34.8234 -72.1191,-34.6399 -71.9,-34.4748 -71.6973,-34.3276 -71.5117,-34.1977 -71.3436,-34.0843 -71.1935,-33.9869 -71.062,-33.9047 -70.9496,-33.8372 -70.8566,-33.7835 -70.7836,-33.743 -70.731,-33.715 -70.6991,-33.6987 -66.5741,-31.7324 -70.1404,-22.79 -74.4865,-24.202 -74.5208,-24.2121 -74.5782,-24.228 -74.6591,-24.2489 -74.7635,-24.2739 -74.8916,-24.3023 -75.0435,-24.3331 -75.2194,-24.3657 -75.4194,-24.3991 -75.6435,-24.4326 -75.8918,-24.4653 -76.1644,-24.4963 -76.4612,-24.5248 -76.7822,-24.55 -77.1275,-24.5711 -77.4968,-24.5872 -77.8903,-24.5975 -78.3077,-24.6011 -78.749,-24.5972 -79.214,-24.585 -79.7025,-24.5636 -80.2144,-24.5323 -80.7495,-24.4901 -81.3074,-24.4364 -81.8881,-24.3702 -82.4911,-24.2908 -83.1163,-24.1973 -83.7633,-24.089 -84.4317,-23.9651 -85.1213,-23.8247 -85.8315,-23.6672 -86.5622,-23.4918 -87.3127,-23.2977 -88.0827,-23.0841 -88.7791,-22.8265 -89.9625,-17.5935 -89.4447,-17.0614 -88.8415,-16.5372 -88.2475,-16.0391 -87.6635,-15.5663 -87.0901,-15.1185 -86.528,-14.6952 -85.9779,-14.2957 -85.4405,-13.9196 -84.9164,-13.5662 -84.4062,-13.235 -83.9105,-12.9254 -83.4299,-12.6368 -82.9651,-12.3686 -82.5165,-12.12 -82.0847,-11.8905 -81.6702,-11.6794 -81.2735,-11.4861 -80.8951,-11.3097 -80.5356,-11.1497 -80.1952,-11.0053 -79.8745,-10.8758 -79.5738,-10.7604 -79.2936,-10.6585 -79.0342,-10.5692 -78.796,-10.4918 -78.5793,-10.4256 -78.3844,-10.3697 -78.2116,-10.3234 -78.0612,-10.2859 -77.9333,-10.2564 -77.8283,-10.2341 -77.7464,-10.2182 -77.6877,-10.2078 -77.6523,-10.2022 -73.1216,-9.6068 -73.75,0 -78.3196,0.0001 -78.3554,0.0011 -78.415,0.0037 -78.4983,0.0089 -78.6053,0.0173 -78.7359,0.0299 -78.89,0.0475 -79.0673,0.0709 -79.2679,0.1009 -79.4913,0.1384 -79.7376,0.184 -80.0064,0.2388 -80.2975,0.3033 -80.6106,0.3785 -80.9455,0.4652 -81.3017,0.564 -81.6791,0.6758 -82.0772,0.8014 -82.4957,0.9414 -82.9342,1.0967 -83.3922,1.268 -83.8693,1.456 -84.3652,1.6614 -84.8792,1.885 -85.411,2.1274 -85.96,2.3893 -86.5257,2.6714 -87.1075,2.9743 -87.705,3.2987 -88.3174,3.6452 -88.9442,4.0145 -89.5849,4.4071 -90.2387,4.8237 -90.905,5.2648 -91.4877,5.725 -90.9961,11.0675 -90.3392,11.4136 -89.6036,11.7257 -88.8847,12.0159 -88.1832,12.2851 -87.4995,12.5337 -86.8341,12.7627 -86.1875,12.9726 -85.5601,13.1643 -84.9524,13.3384 -84.3649,13.4957 -83.7978,13.637 -83.2516,13.7629 -82.7266,13.8744 -82.2231,13.9722 -81.7415,14.057 -81.2821,14.1297 -80.8451,14.191 -80.4308,14.2418 -80.0393,14.2829 -79.671,14.315 -79.3259,14.3391 -79.0044,14.3559 -78.7064,14.3663 -78.4321,14.371 -78.1816,14.371 -77.9551,14.367 -77.7524,14.3599 -77.5738,14.3505 -77.4191,14.3397 -77.2884,14.3283 -77.1817,14.3171 -77.0988,14.3069 -77.0397,14.2986 -77.0044,14.293 -72.5115,13.4592 -70.1404,22.79 -74.4864,24.2022 -74.5201,24.2142 -74.5759,24.2351 -74.6536,24.2658 -74.7527,24.3069 -74.873,24.3592 -75.0141,24.4235 -75.1756,24.5006 -75.357,24.5911 -75.558,24.6958 -75.7781,24.8153 -76.0168,24.9504 -76.2737,25.1018 -76.5483,25.2701 -76.84,25.4559 -77.1483,25.66 -77.4726,25.883 -77.8124,26.1254 -78.1672,26.3879 -78.5362,26.6711 -78.9188,26.9756 -79.3145,27.3018 -79.7226,27.6504 -80.1424,28.0219 -80.5733,28.4167 -81.0145,28.8354 -81.4653,29.2785 -81.9251,29.7464 -82.393,30.2396 -82.8684,30.7584 -83.3504,31.3033 -83.8384,31.8747 -84.3315,32.4729 -84.8289,33.0983 -85.2409,33.716 -83.1224,38.6452 -82.3907,38.7713 -81.5946,38.8408 -80.8213,38.8947 -80.0709,38.9339 -79.3438,38.9591 -78.6402,38.9712 -77.9604,38.9711 -77.3045,38.9595 -76.6728,38.9373 -76.0654,38.9053 -75.4824,38.8645 -74.924,38.8155 -74.3902,38.7593 -73.8812,38.6967 -73.397,38.6285 -72.9376,38.5557 -72.503,38.479 -72.0932,38.3992 -71.7083,38.3173 -71.348,38.2341 -71.0124,38.1504 -70.7014,38.067 -70.4148,37.9847 -70.1525,37.9045 -69.9143,37.8271 -69.7,37.7533 -69.5095,37.6839 -69.3425,37.6198 -69.1987,37.5617 -69.078,37.5104 -68.9799,37.4668 -68.9042,37.4315 -68.8506,37.4054 -68.8187,37.3892 -64.8034,35.2078 -59.665,43.3492 -63.3618,46.0352 -63.3902,46.0571 -63.4369,46.0942 -63.5013,46.1473 -63.5829,46.2171 -63.6811,46.304 -63.7954,46.4088 -63.9251,46.532 -64.0697,46.6741 -64.2285,46.8358 -64.4009,47.0175 -64.5862,47.2197 -64.7838,47.4431 -64.9929,47.688 -65.2128,47.9549 -65.443,48.2443 -65.6826,48.5565 -65.9308,48.8921 -66.1871,49.2514 -66.4505,49.6348 -66.7204,50.0425 -66.9959,50.4751 -67.2763,50.9327 -67.5608,51.4157 -67.8485,51.9244 -68.1387,52.459 -68.4306,53.0197 -68.7232,53.6068 -69.0159,54.2204 -69.3076,54.8607 -69.5977,55.5279 -69.8852,56.2221 -70.1693,56.9434 -70.4491,57.6919 -70.6501,58.4067 -67.1121,62.44 -66.3772,62.3339 -65.5986,62.1539 -64.8464,61.9662 -64.1207,61.7716 -63.4214,61.5709 -62.7485,61.365 -62.102,61.1548 -61.4818,60.9411 -60.8879,60.7248 -60.32,60.5067 -59.7782,60.2876 -59.2623,60.0685 -58.772,59.8501 -58.3073,59.6333 -57.8678,59.4188 -57.4534,59.2076 -57.0638,59.0003 -56.6987,58.7979 -56.3579,58.601 -56.041,58.4105 -55.7477,58.2272 -55.4777,58.0518 -55.2305,57.885 -55.0058,57.7276 -54.8032,57.5804 -54.6223,57.444 -54.4625,57.3191 -54.3235,57.2065 -54.2047,57.1069 -54.1057,57.0208 -54.0259,56.949 -53.9648,56.8921 -53.9219,56.8506 -53.8966,56.8254 -50.7519,53.5099 -43.3492,59.665 -46.035,63.362 -46.0553,63.3915 -46.0881,63.4413 -46.133,63.5117 -46.189,63.6032 -46.2556,63.7163 -46.3319,63.8513 -46.4172,64.0085 -46.5108,64.1884 -46.6119,64.3912 -46.7197,64.6173 -46.8334,64.8669 -46.9523,65.1403 -47.0755,65.4379 -47.2022,65.7597 -47.3317,66.106 -47.463,66.477 -47.5954,66.8729 -47.7281,67.2938 -47.8602,67.7398 -47.9908,68.211 -48.1192,68.7075 -48.2445,69.2294 -48.3658,69.7767 -48.4822,70.3494 -48.5931,70.9475 -48.6973,71.5709 -48.7943,72.2197 -48.883,72.8937 -48.9626,73.5929 -49.0323,74.3171 -49.0912,75.0661 -49.1385,75.8399 -49.1733,76.6383 -49.1435,77.3802 -44.5324,80.1227 -43.8662,79.7947 -43.1814,79.383 -42.524,78.972 -41.8939,78.5627 -41.2909,78.1557 -40.7146,77.7519 -40.1646,77.3522 -39.6408,76.9573 -39.1428,76.5681 -38.6702,76.1852 -38.2226,75.8094 -37.7996,75.4416 -37.4008,75.0824 -37.0258,74.7325 -36.6741,74.3928 -36.3453,74.0638 -36.0388,73.7463 -35.7541,73.441 -35.4908,73.1484 -35.2483,72.8693 -35.026,72.6044 -34.8234,72.3541 -34.6399,72.1191 -34.4748,71.9 -34.3276,71.6973 -34.1977,71.5117 -34.0843,71.3436 -33.9869,71.1935 -33.9047,71.062 -33.8372,70.9496 -33.7835,70.8566 -33.743,70.7836 -33.715,70.731 -33.6987,70.6991 -31.7324,66.5741 -22.79,70.1404 -24.202,74.4865 -24.2121,74.5208 -24.228,74.5782 -24.2489,74.6591 -24.2739,74.7635 -24.3023,74.8916 -24.3331,75.0435 -24.3657,75.2194 -24.3991,75.4194 -24.4326,75.6435 -24.4653,75.8918 -24.4963,76.1644 -24.5248,76.4612 -24.55,76.7822 -24.5711,77.1275 -24.5872,77.4968 -24.5975,77.8903 -24.6011,78.3077 -24.5972,78.749 -24.585,79.214 -24.5636,79.7025 -24.5323,80.2144 -24.4901,80.7495 -24.4364,81.3074 -24.3702,81.8881 -24.2908,82.4911 -24.1973,83.1163 -24.089,83.7633 -23.9651,84.4317 -23.8247,85.1213 -23.6672,85.8315 -23.4918,86.5622 -23.2977,87.3127 -23.0841,88.0827 -22.8265,88.7791 -17.5935,89.9625 -17.0614,89.4447 -16.5372,88.8415 -16.0391,88.2475 -15.5663,87.6635 -15.1185,87.0901 -14.6952,86.528 -14.2957,85.9779 -13.9196,85.4405 -13.5662,84.9164 -13.235,84.4062 -12.9254,83.9105 -12.6368,83.4299 -12.3686,82.9651 -12.12,82.5165 -11.8905,82.0847 -11.6794,81.6702 -11.4861,81.2735 -11.3097,80.8951 -11.1497,80.5356 -11.0053,80.1952 -10.8758,79.8745 -10.7604,79.5738 -10.6585,79.2936 -10.5692,79.0342 -10.4918,78.796 -10.4256,78.5793 -10.3697,78.3844 -10.3234,78.2116 -10.2859,78.0612 -10.2564,77.9333 -10.2341,77.8283 -10.2182,77.7464 -10.2078,77.6877 -10.2022,77.6523 -9.6068,73.1216 0,73.75 0.0001,78.3196 0.0011,78.3554 0.0037,78.415 0.0089,78.4983 0.0173,78.6053 0.0299,78.7359 0.0475,78.89 0.0709,79.0673 0.1009,79.2679 0.1384,79.4913 0.184,79.7376 0.2388,80.0064 0.3033,80.2975 0.3785,80.6106 0.4652,80.9455 0.564,81.3017 0.6758,81.6791 0.8014,82.0772 0.9414,82.4957 1.0967,82.9342 1.268,83.3922 1.456,83.8693 1.6614,84.3652 1.885,84.8792 2.1274,85.411 2.3893,85.96 2.6714,86.5257 2.9743,87.1075 3.2987,87.705 3.6452,88.3174 4.0145,88.9442 4.4071,89.5849 4.8237,90.2387 5.2648,90.905 5.725,91.4877 11.0675,90.9961 11.4136,90.3392 11.7257,89.6036 12.0159,88.8847 12.2851,88.1832 12.5337,87.4995 12.7627,86.8341 12.9726,86.1875 13.1643,85.5601 13.3384,84.9524 13.4957,84.3649 13.637,83.7978 13.7629,83.2516 13.8744,82.7266 13.9722,82.2231 14.057,81.7415 14.1297,81.2821 14.191,80.8451 14.2418,80.4308 14.2829,80.0393 14.315,79.671 14.3391,79.3259 14.3559,79.0044 14.3663,78.7064 14.371,78.4321 14.371,78.1816 14.367,77.9551 14.3599,77.7524 14.3505,77.5738 14.3397,77.4191 14.3283,77.2884 14.3171,77.1817 14.3069,77.0988 14.2986,77.0397 14.293,77.0044 13.4592,72.5115 22.79,70.1404 24.2022,74.4864 24.2142,74.5201 24.2351,74.5759 24.2658,74.6536 24.3069,74.7527 24.3592,74.873 24.4235,75.0141 24.5006,75.1756 24.5911,75.357 24.6958,75.558 24.8153,75.7781 24.9504,76.0168 25.1018,76.2737 25.2701,76.5483 25.4559,76.84 25.66,77.1483 25.883,77.4726 26.1254,77.8124 26.3879,78.1672 26.6711,78.5362 26.9756,78.9188 27.3018,79.3145 27.6504,79.7226 28.0219,80.1424 28.4167,80.5733 28.8354,81.0145 29.2785,81.4653 29.7464,81.9251 30.2396,82.393 30.7584,82.8684 31.3033,83.3504 31.8747,83.8384 32.4729,84.3315 33.0983,84.8289 33.716,85.2409 38.6452,83.1224 38.7713,82.3907 38.8408,81.5946 38.8947,80.8213 38.9339,80.0709 38.9591,79.3438 38.9712,78.6402 38.9711,77.9604 38.9595,77.3045 38.9373,76.6728 38.9053,76.0654 38.8645,75.4824 38.8155,74.924 38.7593,74.3902 38.6967,73.8812 38.6285,73.397 38.5557,72.9376 38.479,72.503 38.3992,72.0932 38.3173,71.7083 38.2341,71.348 38.1504,71.0124 38.067,70.7014 37.9847,70.4148 37.9045,70.1525 37.8271,69.9143 37.7533,69.7 37.6839,69.5095 37.6198,69.3425 37.5617,69.1987 37.5104,69.078 37.4668,68.9799 37.4315,68.9042 37.4054,68.8506 37.3892,68.8187 35.2078,64.8034 43.3492,59.665 46.0352,63.3618 46.0571,63.3902 46.0942,63.4369 46.1473,63.5013 46.2171,63.5829 46.304,63.6811 46.4088,63.7954 46.532,63.9251 46.6741,64.0697 46.8358,64.2285 47.0175,64.4009 47.2197,64.5862 47.4431,64.7838 47.688,64.9929 47.9549,65.2128 48.2443,65.443 48.5565,65.6826 48.8921,65.9308 49.2514,66.1871 49.6348,66.4505 50.0425,66.7204 50.4751,66.9959 50.9327,67.2763 51.4157,67.5608 51.9244,67.8485 52.459,68.1387 53.0197,68.4306 53.6068,68.7232 54.2204,69.0159 54.8607,69.3076 55.5279,69.5977 56.2221,69.8852 56.9434,70.1693 57.6919,70.4491 58.4067,70.6501 62.44,67.1121 62.3339,66.3772 62.1539,65.5986 61.9662,64.8464 61.7716,64.1207 61.5709,63.4214 61.365,62.7485 61.1548,62.102 60.9411,61.4818 60.7248,60.8879 60.5067,60.32 60.2876,59.7782 60.0685,59.2623 59.8501,58.772 59.6333,58.3073 59.4188,57.8678 59.2076,57.4534 59.0003,57.0638 58.7979,56.6987 58.601,56.3579 58.4105,56.041 58.2272,55.7477 58.0518,55.4777 57.885,55.2305 57.7276,55.0058 57.5804,54.8032 57.444,54.6223 57.3191,54.4625 57.2065,54.3235 57.1069,54.2047 57.0208,54.1057 56.949,54.0259 56.8921,53.9648 56.8506,53.9219 56.8254,53.8966 53.5099,50.7519 59.665,43.3492 63.362,46.035 63.3915,46.0553 63.4413,46.0881 63.5117,46.133 63.6032,46.189 63.7163,46.2556 63.8513,46.3319 64.0085,46.4172 64.1884,46.5108 64.3912,46.6119 64.6173,46.7197 64.8669,46.8334 65.1403,46.9523 65.4379,47.0755 65.7597,47.2022 66.106,47.3317 66.477,47.463 66.8729,47.5954 67.2938,47.7281 67.7398,47.8602 68.211,47.9908 68.7075,48.1192 69.2294,48.2445 69.7767,48.3658 70.3494,48.4822 70.9475,48.5931 71.5709,48.6973 72.2197,48.7943 72.8937,48.883 73.5929,48.9626 74.3171,49.0323 75.0661,49.0912 75.8399,49.1385 76.6383,49.1733 77.3802,49.1435 80.1227,44.5324 79.7947,43.8662 79.383,43.1814 78.972,42.524 78.5627,41.8939 78.1557,41.2909 77.7519,40.7146 77.3522,40.1646 76.9573,39.6408 76.5681,39.1428 76.1852,38.6702 75.8094,38.2226 75.4416,37.7996 75.0824,37.4008 74.7325,37.0258 74.3928,36.6741 74.0638,36.3453 73.7463,36.0388 73.441,35.7541 73.1484,35.4908 72.8693,35.2483 72.6044,35.026 72.3541,34.8234 72.1191,34.6399 71.9,34.4748 71.6973,34.3276 71.5117,34.1977 71.3436,34.0843 71.1935,33.9869 71.062,33.9047 70.9496,33.8372 70.8566,33.7835 70.7836,33.743 70.731,33.715 70.6991,33.6987 66.5741,31.7324 70.1404,22.79 74.4865,24.202 74.5208,24.2121 74.5782,24.228 74.6591,24.2489 74.7635,24.2739 74.8916,24.3023 75.0435,24.3331 75.2194,24.3657 75.4194,24.3991 75.6435,24.4326 75.8918,24.4653 76.1644,24.4963 76.4612,24.5248 76.7822,24.55 77.1275,24.5711 77.4968,24.5872 77.8903,24.5975 78.3077,24.6011 78.749,24.5972 79.214,24.585 79.7025,24.5636 80.2144,24.5323 80.7495,24.4901 81.3074,24.4364 81.8881,24.3702 82.4911,24.2908 83.1163,24.1973 83.7633,24.089 84.4317,23.9651 85.1213,23.8247 85.8315,23.6672 86.5622,23.4918 87.3127,23.2977 88.0827,23.0841 88.7791,22.8265 89.9625,17.5935 89.4447,17.0614 88.8415,16.5372 88.2475,16.0391 87.6635,15.5663 87.0901,15.1185 86.528,14.6952 85.9779,14.2957 85.4405,13.9196 84.9164,13.5662 84.4062,13.235 83.9105,12.9254 83.4299,12.6368 82.9651,12.3686 82.5165,12.12 82.0847,11.8905 81.6702,11.6794 81.2735,11.4861 80.8951,11.3097 80.5356,11.1497 80.1952,11.0053 79.8745,10.8758 79.5738,10.7604 79.2936,10.6585 79.0342,10.5692 78.796,10.4918 78.5793,10.4256 78.3844,10.3697 78.2116,10.3234 78.0612,10.2859 77.9333,10.2564 77.8283,10.2341 77.7464,10.2182 77.6877,10.2078 77.6523,10.2022 73.1216,9.6068 "/><g class="guides"><polyline fill="none" stroke="#444" stroke-width="0.5" stroke-miterlimit="10" points="10,0 -10,0"/><polyline fill="none" stroke="#444" stroke-width="0.5" stroke-miterlimit="10" points="0,10 0,-10"/></g><circle fill="#c00" class="firstmarker" stroke="none" stroke-miterlimit="10" cx="82.9827" cy="-7.6362" r="3.2708"/><g class="geartext"><g class="text"><polyline fill="none" stroke="#444" stroke-width="0.5" stroke-linecap="square" stroke-miterlimit="1"  points="-43.94 -35.02 -45.02 -33.63 -46.05 -32.21 -47.03 -30.75 -47.97 -29.27 "/><polyline fill="none" stroke="#444" stroke-width="0.5" stroke-linecap="square" stroke-miterlimit="1"  points="-43.17 -30.19 -48.92 -34.22 "/><polyline fill="none" stroke="#444" stroke-width="0.5" stroke-linecap="square" stroke-miterlimit="1"  points="-46.69 -37.21 -46.42 -34.68 -46.05 -32.21 -45.56 -29.79 -44.97 -27.44 "/><polyline fill="none" stroke="#444" stroke-width="0.5" stroke-linecap="square" stroke-miterlimit="1"  points="-41.2 -32.83 -43.61 -32.58 -46.05 -32.21 -48.5 -31.71 -50.96 -31.1 "/><polyline fill="none" stroke="#444" stroke-width="0.5" stroke-linecap="square" stroke-miterlimit="1"  points="-40.08 -46.59 -41.52 -45.31 -42.91 -44 -44.27 -42.63 -45.58 -41.23 -42.97 -38.87 -41.74 -40.2 -40.46 -41.48 -39.15 -42.72 -36.65 -42.6 -34.36 -39.93 -34.4 -37.55 -35.56 -36.45 -36.68 -35.32 -39.07 -35.34 "/><polyline fill="none" stroke="#444" stroke-width="0.5" stroke-linecap="square" stroke-miterlimit="1"  points="-22.04 -57.37 -18.26 -47.54 -20.75 -49.37 -23.38 -51.09 -26.14 -52.7 -29.02 -54.18 -24.04 -44.89 "/><polyline fill="none" stroke="#444" stroke-width="0.5" stroke-linecap="square" stroke-miterlimit="1"  points="-10.33 -57.02 -12.11 -56.67 -13.87 -56.26 -15.62 -55.8 -17.36 -55.29 "/><polyline fill="none" stroke="#444" stroke-width="0.5" stroke-linecap="square" stroke-miterlimit="1"  points="-9.7 -53.56 -11.37 -53.23 -13.03 -52.85 -14.67 -52.42 -16.3 -51.94 "/><polyline fill="none" stroke="#444" stroke-width="0.5" stroke-linecap="square" stroke-miterlimit="1"  points="0.42 -50.92 -1.17 -50.91 -2.76 -50.85 -4.35 -50.74 -5.93 -50.58 -6.34 -54.06 -4.8 -55.99 -3.04 -56.11 -1.29 -56.18 0.48 -57.94 0.5 -59.7 -1.41 -61.44 -3.33 -61.37 -5.25 -61.23 -6.95 -59.3 "/><polyline fill="none" stroke="#444" stroke-width="0.5" stroke-linecap="square" stroke-miterlimit="1"  points="8.63 -51.97 6.77 -50.47 5.19 -50.66 3.73 -52.55 4.22 -59.55 6.26 -61.14 8.17 -60.91 9.78 -58.9 8.63 -51.97 "/><polyline fill="none" stroke="#444" stroke-width="0.5" stroke-linecap="square" stroke-miterlimit="1"  points="21.01 -52.11 22.63 -51.43 24.23 -50.7 25.8 -49.92 28.2 -50.62 29.06 -52.15 28.22 -54.6 26.5 -55.45 24.75 -56.25 22.98 -57 19.04 -47.23 "/><polyline fill="none" stroke="#444" stroke-width="0.5" stroke-linecap="square" stroke-miterlimit="1"  points="27.51 -42.85 31.31 -48.76 "/><polyline fill="none" stroke="#444" stroke-width="0.5" stroke-linecap="square" stroke-miterlimit="1"  points="32.26 -50.24 33.21 -51.72 "/><polyline fill="none" stroke="#444" stroke-width="0.5" stroke-linecap="square" stroke-miterlimit="1"  points="36.23 -38.25 33.85 -38.05 33.77 -40.43 39.39 -47.17 "/><polyline fill="none" stroke="#444" stroke-width="0.5" stroke-linecap="square" stroke-miterlimit="1"  points="39.85 -42.07 38.52 -43.29 37.14 -44.48 35.74 -45.62 34.29 -46.71 "/><polyline fill="none" stroke="#444" stroke-width="0.5" stroke-linecap="square" stroke-miterlimit="1"  points="41.3 -29.79 40.35 -31.07 39.35 -32.32 38.33 -33.53 38.54 -35.91 41.11 -38.3 43.61 -38.15 44.78 -36.77 45.91 -35.36 46.99 -33.9 "/><polyline fill="none" stroke="#444" stroke-width="0.5" stroke-linecap="square" stroke-miterlimit="1"  points="46.05 -29.03 48.45 -28.47 50.85 -27.78 51.7 -26.18 50.9 -23.81 46.13 -21.57 "/><polyline fill="none" stroke="#444" stroke-width="0.5" stroke-linecap="square" stroke-miterlimit="1"  points="43.08 -27.16 51.99 -32.78 "/><polyline fill="none" stroke="#444" stroke-width="0.5" stroke-linecap="square" stroke-miterlimit="1"  points="49.71 -11.05 50.03 -9.49 50.3 -7.92 50.53 -6.35 52.45 -4.93 59.44 -5.59 60.98 -7.66 60.71 -9.56 60.38 -11.46 59.99 -13.34 "/><polyline fill="none" stroke="#444" stroke-width="0.5" stroke-linecap="square" stroke-miterlimit="1"  points="60.38 -11.46 50.03 -9.49 "/><polyline fill="none" stroke="#444" stroke-width="0.5" stroke-linecap="square" stroke-miterlimit="1"  points="57.69 5.42 57.83 3.62 57.92 1.81 57.95 0 57.92 -1.81 "/><polyline fill="none" stroke="#444" stroke-width="0.5" stroke-linecap="square" stroke-miterlimit="1"  points="54.2 5.1 54.33 3.4 54.41 1.7 54.43 0 54.41 -1.7 "/><polyline fill="none" stroke="#444" stroke-width="0.5" stroke-linecap="square" stroke-miterlimit="1"  points="58.98 9.29 60.38 11.46 50.03 9.49 "/><polyline fill="none" stroke="#444" stroke-width="0.5" stroke-linecap="square" stroke-miterlimit="1"  points="49.71 11.05 50.03 9.49 50.3 7.92 "/><polyline fill="none" stroke="#444" stroke-width="0.5" stroke-linecap="square" stroke-miterlimit="1"  points="50.61 14.62 48.92 14.13 "/><polyline fill="none" stroke="#444" stroke-width="0.5" stroke-linecap="square" stroke-miterlimit="1"  points="52.9 18.94 52.29 20.58 51.62 22.2 50.9 23.81 48.56 24.59 47 23.8 46.13 21.57 46.78 20.12 47.38 18.65 49.6 17.75 54.56 19.53 55.55 21.87 56.46 24.29 55.67 26.04 "/><polyline fill="none" stroke="#444" stroke-width="0.5" stroke-linecap="square" stroke-miterlimit="1"  points="52.99 31.14 51.99 32.78 50.94 34.38 49.84 35.96 48.69 37.5 45.57 32.88 42.21 28.49 "/><polyline fill="none" stroke="#444" stroke-width="0.5" stroke-linecap="square" stroke-miterlimit="1"  points="36.02 43.13 34.65 44.23 33.25 45.29 31.82 46.31 31.31 48.76 32.26 50.24 34.81 50.65 36.37 49.54 37.9 48.38 39.39 47.17 32.64 39.09 "/><polyline fill="none" stroke="#444" stroke-width="0.5" stroke-linecap="square" stroke-miterlimit="1"  points="21.67 53.74 23.34 53.04 24.99 52.28 26.61 51.48 28.2 50.62 "/><polyline fill="none" stroke="#444" stroke-width="0.5" stroke-linecap="square" stroke-miterlimit="1"  points="20.36 50.48 21.92 49.82 23.47 49.11 24.99 48.36 26.49 47.55 "/><polyline fill="none" stroke="#444" stroke-width="0.5" stroke-linecap="square" stroke-miterlimit="1"  points="18.83 56.66 17.55 58.9 14.54 48.8 "/><polyline fill="none" stroke="#444" stroke-width="0.5" stroke-linecap="square" stroke-miterlimit="1"  points="13.01 49.23 14.54 48.8 16.06 48.32 "/><polyline fill="none" stroke="#444" stroke-width="0.5" stroke-linecap="square" stroke-miterlimit="1"  points="3.6 50.8 5.19 50.66 6.77 50.47 8.34 50.23 9.91 49.95 10.59 53.39 9.2 55.43 7.47 55.69 5.72 55.9 4.1 57.8 4.22 59.55 6.26 61.14 8.17 60.91 10.07 60.63 11.61 58.56 "/><polyline fill="none" stroke="#444" stroke-width="0.5" stroke-linecap="square" stroke-miterlimit="1"  points="-8.28 55.58 -10.02 55.29 -11.74 54.95 -13.45 54.56 -15.62 55.8 -16.09 57.49 -14.71 59.67 -12.84 60.1 -10.95 60.47 -9.06 60.79 -7.51 50.37 "/><polyline fill="none" stroke="#444" stroke-width="0.5" stroke-linecap="square" stroke-miterlimit="1"  points="-16.76 48.08 -17.92 51.4 -20.78 54.09 -23.82 56.66 -24.11 52.69 -24.19 48.77 -22.63 45.62 "/><polyline fill="none" stroke="#444" stroke-width="0.5" stroke-linecap="square" stroke-miterlimit="1"  points="-17.92 51.4 -19.52 50.82 -21.1 50.18 -22.65 49.5 -24.19 48.77 "/><polyline fill="none" stroke="#444" stroke-width="0.5" stroke-linecap="square" stroke-miterlimit="1"  points="-34.97 46.2 -33.51 47.27 -32.02 48.3 -30.5 49.27 -28.94 50.2 "/><polyline fill="none" stroke="#444" stroke-width="0.5" stroke-linecap="square" stroke-miterlimit="1"  points="-32.85 43.4 -31.48 44.41 -30.08 45.37 -28.65 46.29 -27.19 47.16 "/><polyline fill="none" stroke="#444" stroke-width="0.5" stroke-linecap="square" stroke-miterlimit="1"  points="-37.76 34.16 -36.68 35.32 -35.56 36.45 -34.4 37.55 -33.21 38.6 -35.5 41.26 -37.96 41.43 -39.24 40.22 -40.47 38.98 -42.97 38.87 -44.28 40.05 -44.27 42.63 -42.91 44 -41.52 45.31 -38.94 45.26 "/><polyline fill="none" stroke="#444" stroke-width="0.5" stroke-linecap="square" stroke-miterlimit="1"  points="-44.09 28.83 -41.73 29.19 -40.8 30.48 -41.2 32.83 -46.69 37.21 -49.24 36.78 -50.36 35.22 -49.97 32.67 -44.09 28.83 "/></g></g><g class="guides gearguides" opacity="0.2"><circle class="pitch" fill="none" stroke="#f00" stroke-miterlimit="10" cx="0" cy="0" r="83.33"/><circle class="outer" fill="none" stroke="#ccc" stroke-miterlimit="10" stroke-dasharray="2,2" cx="0" cy="0" r="91.67"/><circle class="base" fill="none" stroke="#00f" stroke-miterlimit="10" stroke-dasharray="2,2" cx="0" cy="0" r="78.31"/></g></svg>