<?xml version="1.0" encoding="utf-8"?><!-- Generator: Iparigrafika Gear Generator by Abel Vincze http://geargenerator.com/ --><svg version="1.2" class="svggear" xmlns="http://www.w3.org/2000/svg" xmlns:xlink="http://www.w3.org/1999/xlink" x="0px" y="0px" width="126px" height="126px" viewBox="-63 -63 126 126" overflow="scroll" xml:space="preserve"><polygon id="gearpoly4" data-id="4" class="gear" fill="#ddd" stroke="#444" stroke-width="1" stroke-miterlimit="10" points="44.5833,0 50.9078,-0.0001 50.9499,-0.0015 51.0287,-0.0061 51.1439,-0.016 51.2952,-0.033 51.4824,-0.0591 51.705,-0.0963 51.9626,-0.1464 52.2545,-0.2114 52.5802,-0.2932 52.9389,-0.3935 53.3298,-0.5143 53.7521,-0.6573 54.2049,-0.8242 54.6871,-1.0169 55.1977,-1.2369 55.7354,-1.486 56.2992,-1.7658 56.8877,-2.0778 57.4995,-2.4235 58.1333,-2.8044 58.7876,-3.2219 59.4608,-3.6774 60.1514,-4.1722 60.8577,-4.7075 61.578,-5.2846 62.2213,-5.896 61.5816,-10.6749 60.8002,-11.0956 59.9535,-11.4629 59.1313,-11.7936 58.3349,-12.0893 57.5656,-12.3518 56.8245,-12.5825 56.1129,-12.7834 55.4316,-12.956 54.7818,-13.1022 54.1643,-13.2239 53.58,-13.3228 53.0295,-13.4008 52.5136,-13.4599 52.0329,-13.5019 51.5878,-13.5288 51.1789,-13.5425 50.8064,-13.5449 50.4707,-13.5382 50.172,-13.5241 49.9103,-13.5048 49.6858,-13.4821 49.4983,-13.4581 49.3478,-13.4347 49.2341,-13.4139 49.1569,-13.3977 49.1158,-13.3879 43.014,-11.7248 39.4766,-20.7189 45.0765,-23.6581 45.1133,-23.6789 45.1808,-23.7196 45.2782,-23.7819 45.4043,-23.8673 45.5579,-23.9774 45.7378,-24.1138 45.9425,-24.2779 46.1708,-24.4711 46.4212,-24.6948 46.6922,-24.9504 46.9822,-25.239 47.2897,-25.5618 47.613,-25.9201 47.9505,-26.3148 48.3003,-26.7469 48.6607,-27.2174 49.0299,-27.7271 49.406,-28.2768 49.787,-28.8672 50.1712,-29.4991 50.5565,-30.1728 50.9409,-30.889 51.3225,-31.648 51.6991,-32.4503 52.0687,-33.296 52.3542,-34.1363 49.567,-38.0705 48.6795,-38.0799 47.7591,-38.0116 46.8774,-37.9224 46.0348,-37.8141 45.2316,-37.689 44.4682,-37.549 43.7447,-37.3961 43.0613,-37.2323 42.418,-37.0598 41.8147,-36.8806 41.2513,-36.6966 40.7276,-36.5099 40.2434,-36.3225 39.7982,-36.1362 39.3916,-35.9532 39.0232,-35.7753 38.6922,-35.6044 38.3981,-35.4424 38.1401,-35.2911 37.9174,-35.1523 37.7291,-35.0279 37.5743,-34.9195 37.4519,-34.8289 37.3609,-34.7577 37.3001,-34.7074 37.2682,-34.6797 32.6382,-30.3714 25.3262,-36.6914 28.9188,-41.8963 28.9417,-41.9318 28.9826,-41.9993 29.0399,-42.0997 29.1119,-42.2339 29.1967,-42.4028 29.2925,-42.6071 29.3976,-42.8475 29.5099,-43.1247 29.6276,-43.4392 29.7488,-43.7914 29.8715,-44.1817 29.9938,-44.6105 30.1136,-45.078 30.229,-45.5843 30.3379,-46.1294 30.4384,-46.7135 30.5284,-47.3364 30.6059,-47.9979 30.669,-48.6979 30.7155,-49.4358 30.7436,-50.2115 30.7511,-51.0243 30.7362,-51.8737 30.6969,-52.7591 30.6312,-53.6797 30.4934,-54.5564 26.1971,-56.7447 25.407,-56.3406 24.6237,-55.8524 23.8845,-55.3636 23.1887,-54.8762 22.5357,-54.3921 21.9248,-53.9134 21.3552,-53.4418 20.8262,-52.9792 20.3367,-52.5275 19.8858,-52.0884 19.4725,-51.6637 19.0955,-51.255 18.7539,-50.864 18.4462,-50.4922 18.1713,-50.1412 17.9277,-49.8124 17.7141,-49.5073 17.5289,-49.2271 17.3708,-48.9733 17.2381,-48.747 17.1292,-48.5493 17.0425,-48.3814 16.9762,-48.2442 16.9287,-48.1388 16.8982,-48.0661 16.8829,-48.0267 14.7854,-42.0602 5.3739,-44.2583 6.1362,-50.5366 6.1399,-50.5786 6.1448,-50.6574 6.1489,-50.7729 6.1502,-50.9252 6.1468,-51.1142 6.1368,-51.3396 6.118,-51.6013 6.0887,-51.899 6.0468,-52.2321 5.9904,-52.6003 5.9177,-53.003 5.8266,-53.4395 5.7155,-53.909 5.5823,-54.411 5.4254,-54.9443 5.243,-55.5082 5.0332,-56.1016 4.7944,-56.7233 4.525,-57.3724 4.2233,-58.0475 3.8876,-58.7473 3.5166,-59.4705 3.1087,-60.2157 2.6624,-60.9814 2.1764,-61.766 1.647,-62.4783 -3.1742,-62.4193 -3.686,-61.6943 -4.1527,-60.898 -4.5801,-60.1217 -4.9697,-59.3668 -5.3229,-58.6347 -5.6414,-57.9269 -5.9265,-57.2446 -6.18,-56.5892 -6.4035,-55.9617 -6.5987,-55.3634 -6.7673,-54.7952 -6.9111,-54.2582 -7.0319,-53.7532 -7.1316,-53.281 -7.2119,-52.8424 -7.2748,-52.4381 -7.3221,-52.0687 -7.3559,-51.7346 -7.3779,-51.4363 -7.3903,-51.1742 -7.3948,-50.9486 -7.3936,-50.7596 -7.3885,-50.6074 -7.3816,-50.492 -7.3748,-50.4134 -7.37,-50.3715 -6.4545,-44.1136 -15.8095,-41.6861 -18.0522,-47.5996 -18.0685,-47.6385 -18.1007,-47.7105 -18.1508,-47.8147 -18.2204,-47.9502 -18.3112,-48.1159 -18.4249,-48.3109 -18.5631,-48.5339 -18.7274,-48.7838 -18.9193,-49.0593 -19.1403,-49.3592 -19.3919,-49.6819 -19.6753,-50.0261 -19.992,-50.3902 -20.3431,-50.7728 -20.7299,-51.1721 -21.1535,-51.5866 -21.615,-52.0145 -22.1154,-52.4541 -22.6556,-52.9036 -23.2365,-53.3611 -23.8589,-53.8248 -24.5235,-54.2928 -25.2311,-54.763 -25.982,-55.2336 -26.777,-55.7025 -27.5768,-56.0872 -31.8183,-53.7945 -31.9346,-52.9146 -31.9778,-51.9927 -31.9954,-51.1066 -31.9896,-50.2571 -31.9621,-49.4447 -31.9151,-48.67 -31.8505,-47.9334 -31.7704,-47.2352 -31.6767,-46.5758 -31.5715,-45.9553 -31.4568,-45.3738 -31.3345,-44.8315 -31.2068,-44.3282 -31.0756,-43.8638 -30.9429,-43.4381 -30.8107,-43.0509 -30.681,-42.7017 -30.5556,-42.3902 -30.4365,-42.1159 -30.3256,-41.8781 -30.2248,-41.6762 -30.1359,-41.5094 -30.0606,-41.377 -30.0009,-41.278 -29.9583,-41.2116 -29.9346,-41.1767 -26.2158,-36.0611 -33.3711,-29.5642 -38.1051,-33.758 -38.1376,-33.785 -38.1996,-33.8337 -38.2923,-33.9027 -38.4169,-33.9903 -38.5743,-34.0949 -38.7656,-34.2147 -38.9916,-34.3479 -39.2533,-34.4929 -39.5512,-34.6476 -39.8863,-34.8104 -40.259,-34.9793 -40.6699,-35.1523 -41.1195,-35.3276 -41.6082,-35.5031 -42.1363,-35.677 -42.704,-35.8471 -43.3115,-36.0116 -43.9588,-36.1683 -44.6461,-36.3152 -45.3731,-36.4504 -46.1397,-36.5717 -46.9456,-36.6772 -47.7906,-36.7648 -48.6743,-36.8325 -49.5961,-36.8782 -50.483,-36.8472 -53.1733,-32.8459 -52.8673,-32.0128 -52.4771,-31.1764 -52.081,-30.3837 -51.681,-29.6342 -51.2792,-28.9276 -50.8775,-28.2635 -50.478,-27.6412 -50.0826,-27.0603 -49.6932,-26.5199 -49.3117,-26.0194 -48.9399,-25.5579 -48.5796,-25.1344 -48.2326,-24.7481 -47.9006,-24.3979 -47.5853,-24.0826 -47.2883,-23.8012 -47.0111,-23.5524 -46.7553,-23.3348 -46.5224,-23.1472 -46.3137,-22.9882 -46.1306,-22.8563 -45.9744,-22.7499 -45.8462,-22.6676 -45.7473,-22.6078 -45.6788,-22.5687 -45.6416,-22.5488 -39.9714,-19.7474 -43.2878,-10.6695 -49.4285,-12.1829 -49.4698,-12.1917 -49.5474,-12.206 -49.6616,-12.224 -49.8126,-12.2437 -50.0006,-12.2632 -50.2256,-12.2803 -50.4877,-12.2933 -50.7867,-12.3 -51.1224,-12.2986 -51.4947,-12.287 -51.9032,-12.2633 -52.3475,-12.2256 -52.8271,-12.1718 -53.3414,-12.1002 -53.8897,-12.0087 -54.4715,-11.8955 -55.0858,-11.7588 -55.7319,-11.5967 -56.4087,-11.4075 -57.1152,-11.1893 -57.8504,-10.9405 -58.613,-10.6593 -59.402,-10.3442 -60.2158,-9.9935 -61.0533,-9.6056 -61.8242,-9.1659 -62.3468,-4.3728 -61.6888,-3.7773 -60.9546,-3.218 -60.2354,-2.7002 -59.5329,-2.2224 -58.8488,-1.7835 -58.1845,-1.3821 -57.5416,-1.0168 -56.9215,-0.6861 -56.3255,-0.3886 -55.7551,-0.1227 -55.2114,0.1131 -54.6956,0.3206 -54.2089,0.5014 -53.7521,0.6573 -53.3264,0.7899 -52.9327,0.901 -52.5716,0.9926 -52.244,1.0663 -51.9506,1.1242 -51.6919,1.168 -51.4685,1.1997 -51.2807,1.2213 -51.129,1.2346 -51.0136,1.2416 -50.9348,1.2443 -50.8926,1.2447 -44.57,1.0901 -43.2878,10.6695 -49.4285,12.1831 -49.4691,12.1946 -49.5444,12.2179 -49.6539,12.255 -49.7968,12.3078 -49.9723,12.3779 -50.1795,12.4673 -50.4176,12.5776 -50.6855,12.7106 -50.9821,12.8679 -51.3064,13.0512 -51.6571,13.262 -52.0329,13.5019 -52.4326,13.7724 -52.8547,14.0748 -53.2977,14.4107 -53.7602,14.7812 -54.2407,15.1878 -54.7374,15.6315 -55.2487,16.1136 -55.7729,16.6351 -56.3083,17.1971 -56.8529,17.8005 -57.405,18.4461 -57.9627,19.1349 -58.524,19.8676 -59.0022,20.6152 -57.2375,25.1021 -56.3781,25.3236 -55.4681,25.4776 -54.5906,25.6019 -53.7466,25.6985 -52.9368,25.7692 -52.1621,25.8159 -51.4231,25.8406 -50.7203,25.8452 -50.0544,25.8317 -49.4257,25.802 -48.8347,25.7582 -48.2816,25.7022 -47.7665,25.6361 -47.2897,25.5618 -46.8512,25.4814 -46.4508,25.3969 -46.0886,25.3101 -45.7642,25.2232 -45.4775,25.1381 -45.2281,25.0567 -45.0155,24.9809 -44.8392,24.9127 -44.6987,24.854 -44.5933,24.8066 -44.5222,24.7724 -44.4847,24.7531 -38.9582,21.678 -33.3711,29.5642 -38.105,33.7582 -38.1356,33.7872 -38.1915,33.8429 -38.2712,33.9266 -38.3732,34.0397 -38.4959,34.1834 -38.6379,34.3588 -38.7974,34.5672 -38.9728,34.8094 -39.1624,35.0866 -39.3644,35.3995 -39.5769,35.7492 -39.7982,36.1362 -40.0264,36.5614 -40.2596,37.0254 -40.4958,37.5287 -40.7332,38.0717 -40.9696,38.655 -41.2032,39.2787 -41.4319,39.9432 -41.6537,40.6486 -41.8666,41.395 -42.0685,42.1824 -42.2573,43.0107 -42.431,43.8797 -42.5875,44.7893 -42.6636,45.6735 -39.0158,48.8264 -38.1519,48.6231 -37.2745,48.3366 -36.4398,48.0389 -35.6476,47.7322 -34.8977,47.4185 -34.19,47.0998 -33.5241,46.7782 -32.8998,46.4557 -32.3164,46.1342 -31.7735,45.8158 -31.2706,45.5024 -30.8068,45.1958 -30.3815,44.8979 -29.9938,44.6105 -29.6428,44.3355 -29.3276,44.0746 -29.0472,43.8294 -28.8004,43.6017 -28.5861,43.3931 -28.4031,43.2051 -28.25,43.0392 -28.1256,42.897 -28.0285,42.7797 -27.9572,42.6887 -27.9102,42.6253 -27.8859,42.5908 -24.4215,37.2997 -15.8095,41.6861 -18.0521,47.5996 -18.0657,47.6396 -18.0893,47.7148 -18.121,47.826 -18.1587,47.9736 -18.2006,48.1578 -18.2448,48.3792 -18.2893,48.6378 -18.332,48.9338 -18.371,49.2673 -18.4044,49.6383 -18.4301,50.0466 -18.4462,50.4922 -18.4507,50.9747 -18.4415,51.4939 -18.4168,52.0493 -18.3746,52.6405 -18.3129,53.2668 -18.2299,53.9277 -18.1236,54.6224 -17.9922,55.35 -17.8338,56.1098 -17.6466,56.9008 -17.4289,57.722 -17.1788,58.5722 -16.8947,59.4503 -16.5512,60.2686 -11.856,61.3652 -11.1855,60.7837 -10.5418,60.1223 -9.941,59.4708 -9.3821,58.831 -8.8639,58.2047 -8.3854,57.5937 -7.9452,56.9995 -7.5423,56.4237 -7.1751,55.868 -6.8424,55.3338 -6.5427,54.8225 -6.2745,54.3355 -6.0364,53.8741 -5.8266,53.4395 -5.6437,53.0328 -5.4859,52.6553 -5.3515,52.3079 -5.2388,51.9916 -5.146,51.7073 -5.0713,51.4558 -5.0128,51.2378 -4.9688,51.054 -4.9373,50.905 -4.9164,50.7913 -4.9042,50.7134 -4.8988,50.6715 -4.2901,44.3764 5.3739,44.2583 6.1363,50.5366 6.1428,50.5783 6.1569,50.6559 6.1806,50.7691 6.2157,50.9173 6.2642,51.0999 6.3279,51.3164 6.4088,51.566 6.5085,51.848 6.6289,52.1615 6.7717,52.5054 6.9387,52.879 7.1316,53.281 7.3519,53.7103 7.6013,54.1658 7.8813,54.6461 8.1934,55.1499 8.539,55.6759 8.9197,56.2225 9.3366,56.7882 9.7911,57.3714 10.2845,57.9706 10.8178,58.584 11.3922,59.2099 12.0088,59.8465 12.6684,60.492 13.3529,61.0569 18.0199,59.8459 18.3433,59.0195 18.6059,58.1347 18.8351,57.2786 19.0327,56.4523 19.2005,55.657 19.3402,54.8935 19.4538,54.1629 19.5431,53.4658 19.6099,52.8031 19.6563,52.1755 19.684,51.5835 19.6951,51.0276 19.6916,50.5084 19.6753,50.0261 19.6484,49.581 19.6127,49.1734 19.5702,48.8033 19.523,48.4709 19.4731,48.176 19.4223,47.9186 19.3727,47.6984 19.3263,47.5152 19.285,47.3686 19.2506,47.2583 19.2252,47.1836 19.2106,47.144 16.824,41.2871 25.3262,36.6914 28.919,41.8962 28.9441,41.9301 28.9926,41.9923 29.0662,42.0815 29.1661,42.1964 29.294,42.3356 29.451,42.4977 29.6386,42.6812 29.8579,42.8845 30.1102,43.1061 30.3966,43.3443 30.718,43.5974 31.0756,43.8638 31.4702,44.1416 31.9027,44.429 32.3738,44.7241 32.8843,45.0252 33.4348,45.3303 34.0258,45.6373 34.6579,45.9445 35.3314,46.2497 36.0467,46.551 36.804,46.8463 37.6035,47.1335 38.4453,47.4107 39.3294,47.6757 40.198,47.8578 43.7676,44.6167 43.6699,43.7346 43.4912,42.8291 43.2963,41.9646 43.0873,41.1411 42.8663,40.3589 42.6352,39.618 42.3962,38.9182 42.1513,38.2595 41.9026,37.6416 41.6519,37.0644 41.4014,36.5273 41.1529,36.0299 40.9084,35.5718 40.6699,35.1523 40.4392,34.7707 40.2182,34.4264 40.0086,34.1185 39.8123,33.846 39.6311,33.6082 39.4665,33.4038 39.3203,33.2319 39.194,33.0912 39.0893,32.9807 39.0076,32.8989 38.9504,32.8446 38.919,32.8163 34.084,28.7394 39.4766,20.7189 45.0766,23.6579 45.1146,23.6763 45.1865,23.7088 45.2931,23.7536 45.435,23.8089 45.6129,23.8727 45.8273,23.9433 46.0786,24.0185 46.3673,24.0966 46.6937,24.1756 47.0579,24.2535 47.4602,24.3282 47.9006,24.3979 48.3791,24.4605 48.8956,24.514 49.4499,24.5564 50.0419,24.5857 50.6711,24.6 51.3371,24.5973 52.0395,24.5755 52.7777,24.5327 53.5511,24.4671 54.3589,24.3766 55.2003,24.2594 56.0745,24.1137 56.9804,23.9375 57.8342,23.6951 59.4887,19.1663 58.9923,18.4306 58.4132,17.7119 57.8389,17.037 57.2712,16.405 56.7119,15.8151 56.163,15.2664 55.6262,14.7578 55.1032,14.2884 54.5958,13.8569 54.1056,13.4623 53.6341,13.1031 53.183,12.7782 52.7536,12.4862 52.3475,12.2256 51.9659,11.9949 51.6102,11.7928 51.2815,11.6175 50.9811,11.4675 50.71,11.3411 50.4694,11.2366 50.26,11.1523 50.0828,11.0865 49.9387,11.0372 49.8284,11.0028 49.7525,10.9813 49.7116,10.9709 43.5358,9.6078 "/><g class="guides"><polyline fill="none" stroke="#444" stroke-width="0.5" stroke-miterlimit="10" points="10,0 -10,0"/><polyline fill="none" stroke="#444" stroke-width="0.5" stroke-miterlimit="10" points="0,10 0,-10"/></g><circle fill="#c00" class="firstmarker" stroke="none" stroke-miterlimit="10" cx="53.6879" cy="-7.186" r="3.2708"/><g class="geartext"><g class="text"><polyline fill="none" stroke="#444" stroke-width="0.5" stroke-linecap="square" stroke-miterlimit="1"  points="-25.89 -21.99 -26.56 -21.17 -27.21 -20.33 -27.84 -19.47 -28.43 -18.59 "/><polyline fill="none" stroke="#444" stroke-width="0.5" stroke-linecap="square" stroke-miterlimit="1"  points="-25.51 -19.06 -28.91 -21.6 "/><polyline fill="none" stroke="#444" stroke-width="0.5" stroke-linecap="square" stroke-miterlimit="1"  points="-27.51 -23.36 -27.4 -21.83 -27.21 -20.33 -26.97 -18.86 -26.65 -17.43 "/><polyline fill="none" stroke="#444" stroke-width="0.5" stroke-linecap="square" stroke-miterlimit="1"  points="-24.27 -20.61 -25.73 -20.51 -27.21 -20.33 -28.71 -20.08 -30.21 -19.75 "/><polyline fill="none" stroke="#444" stroke-width="0.5" stroke-linecap="square" stroke-miterlimit="1"  points="-20.67 -25.6 -21.46 -24.95 -22.23 -24.26 -22.98 -23.56 -23.7 -22.83 -23.97 -24.57 -24.14 -26.35 -24.23 -28.16 -20.08 -23.34 "/><polyline fill="none" stroke="#444" stroke-width="0.5" stroke-linecap="square" stroke-miterlimit="1"  points="-12.23 -35.08 -10.13 -29.07 -11.61 -30.22 -13.16 -31.31 -14.8 -32.34 -16.51 -33.28 -13.68 -27.58 "/><polyline fill="none" stroke="#444" stroke-width="0.5" stroke-linecap="square" stroke-miterlimit="1"  points="-5.16 -34.65 -6.24 -34.47 -7.32 -34.26 -8.38 -34.01 -9.44 -33.73 "/><polyline fill="none" stroke="#444" stroke-width="0.5" stroke-linecap="square" stroke-miterlimit="1"  points="-4.85 -32.55 -5.87 -32.38 -6.87 -32.18 -7.88 -31.95 -8.87 -31.69 "/><polyline fill="none" stroke="#444" stroke-width="0.5" stroke-linecap="square" stroke-miterlimit="1"  points="-3.08 -35.96 -2.01 -37.1 -1.67 -30.74 "/><polyline fill="none" stroke="#444" stroke-width="0.5" stroke-linecap="square" stroke-miterlimit="1"  points="-0.71 -30.78 -1.67 -30.74 -2.63 -30.67 "/><polyline fill="none" stroke="#444" stroke-width="0.5" stroke-linecap="square" stroke-miterlimit="1"  points="1.43 -36.06 2.63 -37.06 3.78 -36.96 4.94 -36.82 5.91 -35.6 5.74 -34.56 4.51 -33.67 5.39 -32.46 5.22 -31.42 4.09 -30.51 3.14 -30.62 2.18 -30.71 1.26 -31.82 "/><polyline fill="none" stroke="#444" stroke-width="0.5" stroke-linecap="square" stroke-miterlimit="1"  points="3.46 -33.79 4.51 -33.67 "/><polyline fill="none" stroke="#444" stroke-width="0.5" stroke-linecap="square" stroke-miterlimit="1"  points="12.7 -31.5 13.68 -31.09 14.65 -30.65 15.6 -30.18 17.05 -30.6 17.57 -31.53 17.06 -33 16.02 -33.52 14.96 -34.01 13.89 -34.46 11.51 -28.55 "/><polyline fill="none" stroke="#444" stroke-width="0.5" stroke-linecap="square" stroke-miterlimit="1"  points="16.63 -25.9 18.93 -29.48 "/><polyline fill="none" stroke="#444" stroke-width="0.5" stroke-linecap="square" stroke-miterlimit="1"  points="19.5 -30.37 20.07 -31.26 "/><polyline fill="none" stroke="#444" stroke-width="0.5" stroke-linecap="square" stroke-miterlimit="1"  points="21.9 -23.12 20.46 -23 20.41 -24.44 23.81 -28.52 "/><polyline fill="none" stroke="#444" stroke-width="0.5" stroke-linecap="square" stroke-miterlimit="1"  points="24.09 -25.43 23.28 -26.17 22.45 -26.89 21.6 -27.58 20.73 -28.24 "/><polyline fill="none" stroke="#444" stroke-width="0.5" stroke-linecap="square" stroke-miterlimit="1"  points="24.96 -18.01 24.39 -18.78 23.79 -19.54 23.17 -20.27 23.3 -21.71 24.85 -23.15 26.36 -23.07 27.07 -22.23 27.75 -21.37 28.41 -20.5 "/><polyline fill="none" stroke="#444" stroke-width="0.5" stroke-linecap="square" stroke-miterlimit="1"  points="27.84 -17.55 29.29 -17.21 30.74 -16.79 31.25 -15.83 30.77 -14.39 27.88 -13.04 "/><polyline fill="none" stroke="#444" stroke-width="0.5" stroke-linecap="square" stroke-miterlimit="1"  points="26.04 -16.42 31.43 -19.81 "/><polyline fill="none" stroke="#444" stroke-width="0.5" stroke-linecap="square" stroke-miterlimit="1"  points="30.05 -6.68 30.24 -5.74 30.41 -4.79 30.54 -3.84 31.71 -2.98 35.93 -3.38 36.86 -4.63 36.7 -5.78 36.5 -6.93 36.27 -8.06 "/><polyline fill="none" stroke="#444" stroke-width="0.5" stroke-linecap="square" stroke-miterlimit="1"  points="36.5 -6.93 30.24 -5.74 "/><polyline fill="none" stroke="#444" stroke-width="0.5" stroke-linecap="square" stroke-miterlimit="1"  points="34.88 3.28 34.96 2.19 35.01 1.09 35.03 0 35.01 -1.09 "/><polyline fill="none" stroke="#444" stroke-width="0.5" stroke-linecap="square" stroke-miterlimit="1"  points="32.76 3.08 32.84 2.06 32.89 1.03 32.91 0 32.89 -1.03 "/><polyline fill="none" stroke="#444" stroke-width="0.5" stroke-linecap="square" stroke-miterlimit="1"  points="35.65 5.62 36.5 6.93 30.24 5.74 "/><polyline fill="none" stroke="#444" stroke-width="0.5" stroke-linecap="square" stroke-miterlimit="1"  points="30.05 6.68 30.24 5.74 30.41 4.79 "/><polyline fill="none" stroke="#444" stroke-width="0.5" stroke-linecap="square" stroke-miterlimit="1"  points="30.59 8.84 29.57 8.54 "/><polyline fill="none" stroke="#444" stroke-width="0.5" stroke-linecap="square" stroke-miterlimit="1"  points="28.85 13.49 28.28 12.16 28.64 11.28 29.98 10.73 33.98 12.16 34.57 13.61 34.13 14.68 32.69 15.29 28.85 13.49 "/><polyline fill="none" stroke="#444" stroke-width="0.5" stroke-linecap="square" stroke-miterlimit="1"  points="29.29 17.21 28.88 15.78 27.95 15.27 26.54 15.6 26.04 16.42 25.52 17.22 25.83 18.63 26.69 19.25 28.15 19 28.73 18.12 29.29 17.21 30.74 16.79 31.67 17.3 32.03 18.82 31.43 19.81 30.79 20.79 29.27 21.12 28.41 20.5 28.15 19 "/><polyline fill="none" stroke="#444" stroke-width="0.5" stroke-linecap="square" stroke-miterlimit="1"  points="22.58 25.38 21.77 26.07 20.95 26.74 20.1 27.38 19.84 28.87 20.44 29.75 21.99 29.95 22.91 29.25 23.81 28.52 24.69 27.76 20.46 23 "/><polyline fill="none" stroke="#444" stroke-width="0.5" stroke-linecap="square" stroke-miterlimit="1"  points="14.11 32.06 15.1 31.61 16.08 31.12 17.05 30.6 18 30.05 "/><polyline fill="none" stroke="#444" stroke-width="0.5" stroke-linecap="square" stroke-miterlimit="1"  points="13.25 30.12 14.19 29.69 15.11 29.23 16.02 28.75 16.91 28.23 "/><polyline fill="none" stroke="#444" stroke-width="0.5" stroke-linecap="square" stroke-miterlimit="1"  points="12.44 33.88 11.72 35.26 9.71 29.21 "/><polyline fill="none" stroke="#444" stroke-width="0.5" stroke-linecap="square" stroke-miterlimit="1"  points="8.79 29.5 9.71 29.21 10.61 28.9 "/><polyline fill="none" stroke="#444" stroke-width="0.5" stroke-linecap="square" stroke-miterlimit="1"  points="3.14 30.62 4.09 30.51 5.04 30.37 5.99 30.2 6.93 29.99 7.41 32.06 6.61 33.32 5.56 33.51 4.51 33.67 3.57 34.85 3.68 35.9 4.94 36.82 6.09 36.65 7.23 36.44 8.12 35.17 "/><polyline fill="none" stroke="#444" stroke-width="0.5" stroke-linecap="square" stroke-miterlimit="1"  points="-3.96 33.74 -5.01 33.6 -6.05 33.42 -7.1 33.22 -8.38 34.01 -8.64 35.04 -7.76 36.33 -6.62 36.56 -5.48 36.75 -4.33 36.9 -3.58 30.57 "/><polyline fill="none" stroke="#444" stroke-width="0.5" stroke-linecap="square" stroke-miterlimit="1"  points="-9.22 29.37 -9.86 31.4 -11.53 33.08 -13.32 34.68 -13.58 32.29 -13.69 29.92 -12.81 27.99 "/><polyline fill="none" stroke="#444" stroke-width="0.5" stroke-linecap="square" stroke-miterlimit="1"  points="-9.86 31.4 -10.83 31.07 -11.8 30.72 -12.75 30.34 -13.69 29.92 "/><polyline fill="none" stroke="#444" stroke-width="0.5" stroke-linecap="square" stroke-miterlimit="1"  points="-20.26 28.58 -19.36 29.2 -18.43 29.79 -17.5 30.35 -16.54 30.88 "/><polyline fill="none" stroke="#444" stroke-width="0.5" stroke-linecap="square" stroke-miterlimit="1"  points="-19.03 26.84 -18.18 27.43 -17.32 27.98 -16.43 28.51 -15.54 29.01 "/><polyline fill="none" stroke="#444" stroke-width="0.5" stroke-linecap="square" stroke-miterlimit="1"  points="-22.17 21.35 -21.49 22.04 -20.8 22.7 -20.08 23.34 -19.34 23.95 -20.67 25.6 -22.15 25.75 -22.95 25.05 -23.72 24.32 -25.23 24.3 -26 25.04 -25.94 26.6 -25.1 27.39 -24.23 28.16 -22.67 28.08 "/><polyline fill="none" stroke="#444" stroke-width="0.5" stroke-linecap="square" stroke-miterlimit="1"  points="-26.1 18.25 -24.66 18.42 -24.07 19.18 -24.27 20.61 -27.51 23.36 -29.06 23.15 -29.76 22.23 -29.58 20.69 -26.1 18.25 "/></g></g><g class="guides gearguides" opacity="0.2"><circle class="pitch" fill="none" stroke="#f00" stroke-miterlimit="10" cx="0" cy="0" r="54.17"/><circle class="outer" fill="none" stroke="#ccc" stroke-miterlimit="10" stroke-dasharray="2,2" cx="0" cy="0" r="62.5"/><circle class="base" fill="none" stroke="#00f" stroke-miterlimit="10" stroke-dasharray="2,2" cx="0" cy="0" r="50.9"/></g></svg>