<?xml version="1.0" encoding="utf-8"?><!-- Generator: Iparigrafika Gear Generator by Abel Vincze http://geargenerator.com/ --><svg version="1.2" class="svggear" xmlns="http://www.w3.org/2000/svg" xmlns:xlink="http://www.w3.org/1999/xlink" x="0px" y="0px" width="118px" height="118px" viewBox="-59 -59 118 118" overflow="scroll" xml:space="preserve"><polygon id="gearpoly2" data-id="2" class="gear" fill="#ddd" stroke="#444" stroke-width="1" stroke-miterlimit="10" points="40.4167,0 46.9918,-0.0001 47.0355,-0.0016 47.1188,-0.0068 47.2415,-0.018 47.4034,-0.0375 47.6039,-0.0675 47.8426,-0.1104 48.1188,-0.1684 48.4319,-0.2437 48.781,-0.3384 49.1653,-0.4548 49.5838,-0.5949 50.0353,-0.7608 50.5187,-0.9546 51.0327,-1.1782 51.576,-1.4336 52.1471,-1.7226 52.7445,-2.047 53.3665,-2.4087 54.0116,-2.8093 54.6779,-3.2504 55.3636,-3.7336 56.0667,-4.2604 56.7853,-4.8322 57.5174,-5.4502 58.0146,-6.09 57.3783,-10.5124 56.721,-10.9861 55.8443,-11.3727 54.9936,-11.7187 54.1705,-12.0258 53.3764,-12.2961 52.6128,-12.5315 51.881,-12.734 51.1822,-12.9057 50.5175,-13.0485 49.8881,-13.1648 49.2949,-13.2567 48.7387,-13.3263 48.2203,-13.3759 47.7403,-13.4078 47.2993,-13.4243 46.8978,-13.4276 46.5361,-13.4201 46.2145,-13.404 45.9331,-13.3818 45.692,-13.3556 45.4912,-13.328 45.3304,-13.301 45.2095,-13.2772 45.1281,-13.2587 45.0857,-13.2478 38.7773,-11.3942 35.0019,-20.2083 40.696,-23.496 40.7331,-23.5191 40.8027,-23.5653 40.9034,-23.6363 41.0338,-23.7341 41.1924,-23.8604 41.3777,-24.0169 41.5879,-24.2052 41.8214,-24.427 42.0764,-24.6836 42.351,-24.9765 42.6434,-25.3071 42.9514,-25.6765 43.2732,-26.0861 43.6065,-26.5367 43.9493,-27.0295 44.2994,-27.5653 44.6545,-28.145 45.0124,-28.7693 45.3708,-29.4387 45.7272,-30.1539 46.0794,-30.9152 46.425,-31.723 46.7615,-32.5775 47.0864,-33.4788 47.1971,-34.2814 44.4348,-37.7932 43.6287,-37.8747 42.6763,-37.7712 41.7666,-37.6455 40.9001,-37.4999 40.0773,-37.337 39.2982,-37.159 38.5632,-36.9685 37.8722,-36.7677 37.2252,-36.5591 36.622,-36.3451 36.0623,-36.1281 35.5458,-35.9103 35.072,-35.694 34.6404,-35.4817 34.2503,-35.2755 33.9009,-35.0776 33.5914,-34.8902 33.3209,-34.7155 33.0884,-34.5555 32.8926,-34.4123 32.7325,-34.2879 32.6068,-34.1842 32.514,-34.1031 32.4527,-34.0464 32.4215,-34.0158 27.885,-29.2563 20.2083,-35.0019 23.4958,-40.6961 23.5164,-40.7347 23.5535,-40.8095 23.6052,-40.9214 23.6693,-41.0713 23.7435,-41.2599 23.8257,-41.4881 23.9136,-41.7563 24.0049,-42.0651 24.0975,-42.4148 24.1888,-42.8058 24.2767,-43.2383 24.3588,-43.7123 24.4327,-44.2278 24.496,-44.7847 24.5465,-45.3829 24.5818,-46.022 24.5995,-46.7016 24.5973,-47.4211 24.5729,-48.1801 24.524,-48.9776 24.4484,-49.8131 24.3437,-50.6854 24.2079,-51.5936 24.0387,-52.5367 23.7332,-53.2871 19.5851,-54.9473 18.8462,-54.6148 18.0731,-54.0489 17.3482,-53.4852 16.6706,-52.9259 16.0394,-52.3734 15.4538,-51.8298 14.9125,-51.2972 14.4145,-50.7779 13.9584,-50.2737 13.543,-49.7868 13.1668,-49.319 12.8284,-48.8721 12.5262,-48.4479 12.2586,-48.0482 12.0239,-47.6746 11.8202,-47.3285 11.6459,-47.0115 11.499,-46.7249 11.3776,-46.4701 11.2797,-46.2483 11.2032,-46.0605 11.1462,-45.9078 11.1064,-45.7912 11.0817,-45.7114 11.07,-45.6693 9.521,-39.2792 0,-40.4167 -0.0001,-46.9918 -0.0016,-47.0355 -0.0068,-47.1188 -0.018,-47.2415 -0.0375,-47.4034 -0.0675,-47.6039 -0.1104,-47.8426 -0.1684,-48.1188 -0.2437,-48.4319 -0.3384,-48.781 -0.4548,-49.1653 -0.5949,-49.5838 -0.7608,-50.0353 -0.9546,-50.5187 -1.1782,-51.0327 -1.4336,-51.576 -1.7226,-52.1471 -2.047,-52.7445 -2.4087,-53.3665 -2.8093,-54.0116 -3.2504,-54.6779 -3.7336,-55.3636 -4.2604,-56.0667 -4.8322,-56.7853 -5.4502,-57.5174 -6.09,-58.0146 -10.5124,-57.3783 -10.9861,-56.721 -11.3727,-55.8443 -11.7187,-54.9936 -12.0258,-54.1705 -12.2961,-53.3764 -12.5315,-52.6128 -12.734,-51.881 -12.9057,-51.1822 -13.0485,-50.5175 -13.1648,-49.8881 -13.2567,-49.2949 -13.3263,-48.7387 -13.3759,-48.2203 -13.4078,-47.7403 -13.4243,-47.2993 -13.4276,-46.8978 -13.4201,-46.5361 -13.404,-46.2145 -13.3818,-45.9331 -13.3556,-45.692 -13.328,-45.4912 -13.301,-45.3304 -13.2772,-45.2095 -13.2587,-45.1281 -13.2478,-45.0857 -11.3942,-38.7773 -20.2083,-35.0019 -23.496,-40.696 -23.5191,-40.7331 -23.5653,-40.8027 -23.6363,-40.9034 -23.7341,-41.0338 -23.8604,-41.1924 -24.0169,-41.3777 -24.2052,-41.5879 -24.427,-41.8214 -24.6836,-42.0764 -24.9765,-42.351 -25.3071,-42.6434 -25.6765,-42.9514 -26.0861,-43.2732 -26.5367,-43.6065 -27.0295,-43.9493 -27.5653,-44.2994 -28.145,-44.6545 -28.7693,-45.0124 -29.4387,-45.3708 -30.1539,-45.7272 -30.9152,-46.0794 -31.723,-46.425 -32.5775,-46.7615 -33.4788,-47.0864 -34.2814,-47.1971 -37.7932,-44.4348 -37.8747,-43.6287 -37.7712,-42.6763 -37.6455,-41.7666 -37.4999,-40.9001 -37.337,-40.0773 -37.159,-39.2982 -36.9685,-38.5632 -36.7677,-37.8722 -36.5591,-37.2252 -36.3451,-36.622 -36.1281,-36.0623 -35.9103,-35.5458 -35.694,-35.072 -35.4817,-34.6404 -35.2755,-34.2503 -35.0776,-33.9009 -34.8902,-33.5914 -34.7155,-33.3209 -34.5555,-33.0884 -34.4123,-32.8926 -34.2879,-32.7325 -34.1842,-32.6068 -34.1031,-32.514 -34.0464,-32.4527 -34.0158,-32.4215 -29.2563,-27.885 -35.0019,-20.2083 -40.6961,-23.4958 -40.7347,-23.5164 -40.8095,-23.5535 -40.9214,-23.6052 -41.0713,-23.6693 -41.2599,-23.7435 -41.4881,-23.8257 -41.7563,-23.9136 -42.0651,-24.0049 -42.4148,-24.0975 -42.8058,-24.1888 -43.2383,-24.2767 -43.7123,-24.3588 -44.2278,-24.4327 -44.7847,-24.496 -45.3829,-24.5465 -46.022,-24.5818 -46.7016,-24.5995 -47.4211,-24.5973 -48.1801,-24.5729 -48.9776,-24.524 -49.8131,-24.4484 -50.6854,-24.3437 -51.5936,-24.2079 -52.5367,-24.0387 -53.2871,-23.7332 -54.9473,-19.5851 -54.6148,-18.8462 -54.0489,-18.0731 -53.4852,-17.3482 -52.9259,-16.6706 -52.3734,-16.0394 -51.8298,-15.4538 -51.2972,-14.9125 -50.7779,-14.4145 -50.2737,-13.9584 -49.7868,-13.543 -49.319,-13.1668 -48.8721,-12.8284 -48.4479,-12.5262 -48.0482,-12.2586 -47.6746,-12.0239 -47.3285,-11.8202 -47.0115,-11.6459 -46.7249,-11.499 -46.4701,-11.3776 -46.2483,-11.2797 -46.0605,-11.2032 -45.9078,-11.1462 -45.7912,-11.1064 -45.7114,-11.0817 -45.6693,-11.07 -39.2792,-9.521 -40.4167,0 -46.9918,0.0001 -47.0355,0.0016 -47.1188,0.0068 -47.2415,0.018 -47.4034,0.0375 -47.6039,0.0675 -47.8426,0.1104 -48.1188,0.1684 -48.4319,0.2437 -48.781,0.3384 -49.1653,0.4548 -49.5838,0.5949 -50.0353,0.7608 -50.5187,0.9546 -51.0327,1.1782 -51.576,1.4336 -52.1471,1.7226 -52.7445,2.047 -53.3665,2.4087 -54.0116,2.8093 -54.6779,3.2504 -55.3636,3.7336 -56.0667,4.2604 -56.7853,4.8322 -57.5174,5.4502 -58.0146,6.09 -57.3783,10.5124 -56.721,10.9861 -55.8443,11.3727 -54.9936,11.7187 -54.1705,12.0258 -53.3764,12.2961 -52.6128,12.5315 -51.881,12.734 -51.1822,12.9057 -50.5175,13.0485 -49.8881,13.1648 -49.2949,13.2567 -48.7387,13.3263 -48.2203,13.3759 -47.7403,13.4078 -47.2993,13.4243 -46.8978,13.4276 -46.5361,13.4201 -46.2145,13.404 -45.9331,13.3818 -45.692,13.3556 -45.4912,13.328 -45.3304,13.301 -45.2095,13.2772 -45.1281,13.2587 -45.0857,13.2478 -38.7773,11.3942 -35.0019,20.2083 -40.696,23.496 -40.7331,23.5191 -40.8027,23.5653 -40.9034,23.6363 -41.0338,23.7341 -41.1924,23.8604 -41.3777,24.0169 -41.5879,24.2052 -41.8214,24.427 -42.0764,24.6836 -42.351,24.9765 -42.6434,25.3071 -42.9514,25.6765 -43.2732,26.0861 -43.6065,26.5367 -43.9493,27.0295 -44.2994,27.5653 -44.6545,28.145 -45.0124,28.7693 -45.3708,29.4387 -45.7272,30.1539 -46.0794,30.9152 -46.425,31.723 -46.7615,32.5775 -47.0864,33.4788 -47.1971,34.2814 -44.4348,37.7932 -43.6287,37.8747 -42.6763,37.7712 -41.7666,37.6455 -40.9001,37.4999 -40.0773,37.337 -39.2982,37.159 -38.5632,36.9685 -37.8722,36.7677 -37.2252,36.5591 -36.622,36.3451 -36.0623,36.1281 -35.5458,35.9103 -35.072,35.694 -34.6404,35.4817 -34.2503,35.2755 -33.9009,35.0776 -33.5914,34.8902 -33.3209,34.7155 -33.0884,34.5555 -32.8926,34.4123 -32.7325,34.2879 -32.6068,34.1842 -32.514,34.1031 -32.4527,34.0464 -32.4215,34.0158 -27.885,29.2563 -20.2083,35.0019 -23.4958,40.6961 -23.5164,40.7347 -23.5535,40.8095 -23.6052,40.9214 -23.6693,41.0713 -23.7435,41.2599 -23.8257,41.4881 -23.9136,41.7563 -24.0049,42.0651 -24.0975,42.4148 -24.1888,42.8058 -24.2767,43.2383 -24.3588,43.7123 -24.4327,44.2278 -24.496,44.7847 -24.5465,45.3829 -24.5818,46.022 -24.5995,46.7016 -24.5973,47.4211 -24.5729,48.1801 -24.524,48.9776 -24.4484,49.8131 -24.3437,50.6854 -24.2079,51.5936 -24.0387,52.5367 -23.7332,53.2871 -19.5851,54.9473 -18.8462,54.6148 -18.0731,54.0489 -17.3482,53.4852 -16.6706,52.9259 -16.0394,52.3734 -15.4538,51.8298 -14.9125,51.2972 -14.4145,50.7779 -13.9584,50.2737 -13.543,49.7868 -13.1668,49.319 -12.8284,48.8721 -12.5262,48.4479 -12.2586,48.0482 -12.0239,47.6746 -11.8202,47.3285 -11.6459,47.0115 -11.499,46.7249 -11.3776,46.4701 -11.2797,46.2483 -11.2032,46.0605 -11.1462,45.9078 -11.1064,45.7912 -11.0817,45.7114 -11.07,45.6693 -9.521,39.2792 0,40.4167 0.0001,46.9918 0.0016,47.0355 0.0068,47.1188 0.018,47.2415 0.0375,47.4034 0.0675,47.6039 0.1104,47.8426 0.1684,48.1188 0.2437,48.4319 0.3384,48.781 0.4548,49.1653 0.5949,49.5838 0.7608,50.0353 0.9546,50.5187 1.1782,51.0327 1.4336,51.576 1.7226,52.1471 2.047,52.7445 2.4087,53.3665 2.8093,54.0116 3.2504,54.6779 3.7336,55.3636 4.2604,56.0667 4.8322,56.7853 5.4502,57.5174 6.09,58.0146 10.5124,57.3783 10.9861,56.721 11.3727,55.8443 11.7187,54.9936 12.0258,54.1705 12.2961,53.3764 12.5315,52.6128 12.734,51.881 12.9057,51.1822 13.0485,50.5175 13.1648,49.8881 13.2567,49.2949 13.3263,48.7387 13.3759,48.2203 13.4078,47.7403 13.4243,47.2993 13.4276,46.8978 13.4201,46.5361 13.404,46.2145 13.3818,45.9331 13.3556,45.692 13.328,45.4912 13.301,45.3304 13.2772,45.2095 13.2587,45.1281 13.2478,45.0857 11.3942,38.7773 20.2083,35.0019 23.496,40.696 23.5191,40.7331 23.5653,40.8027 23.6363,40.9034 23.7341,41.0338 23.8604,41.1924 24.0169,41.3777 24.2052,41.5879 24.427,41.8214 24.6836,42.0764 24.9765,42.351 25.3071,42.6434 25.6765,42.9514 26.0861,43.2732 26.5367,43.6065 27.0295,43.9493 27.5653,44.2994 28.145,44.6545 28.7693,45.0124 29.4387,45.3708 30.1539,45.7272 30.9152,46.0794 31.723,46.425 32.5775,46.7615 33.4788,47.0864 34.2814,47.1971 37.7932,44.4348 37.8747,43.6287 37.7712,42.6763 37.6455,41.7666 37.4999,40.9001 37.337,40.0773 37.159,39.2982 36.9685,38.5632 36.7677,37.8722 36.5591,37.2252 36.3451,36.622 36.1281,36.0623 35.9103,35.5458 35.694,35.072 35.4817,34.6404 35.2755,34.2503 35.0776,33.9009 34.8902,33.5914 34.7155,33.3209 34.5555,33.0884 34.4123,32.8926 34.2879,32.7325 34.1842,32.6068 34.1031,32.514 34.0464,32.4527 34.0158,32.4215 29.2563,27.885 35.0019,20.2083 40.6961,23.4958 40.7347,23.5164 40.8095,23.5535 40.9214,23.6052 41.0713,23.6693 41.2599,23.7435 41.4881,23.8257 41.7563,23.9136 42.0651,24.0049 42.4148,24.0975 42.8058,24.1888 43.2383,24.2767 43.7123,24.3588 44.2278,24.4327 44.7847,24.496 45.3829,24.5465 46.022,24.5818 46.7016,24.5995 47.4211,24.5973 48.1801,24.5729 48.9776,24.524 49.8131,24.4484 50.6854,24.3437 51.5936,24.2079 52.5367,24.0387 53.2871,23.7332 54.9473,19.5851 54.6148,18.8462 54.0489,18.0731 53.4852,17.3482 52.9259,16.6706 52.3734,16.0394 51.8298,15.4538 51.2972,14.9125 50.7779,14.4145 50.2737,13.9584 49.7868,13.543 49.319,13.1668 48.8721,12.8284 48.4479,12.5262 48.0482,12.2586 47.6746,12.0239 47.3285,11.8202 47.0115,11.6459 46.7249,11.499 46.4701,11.3776 46.2483,11.2797 46.0605,11.2032 45.9078,11.1462 45.7912,11.1064 45.7114,11.0817 45.6693,11.07 39.2792,9.521 "/><g class="guides"><polyline fill="none" stroke="#444" stroke-width="0.5" stroke-miterlimit="10" points="10,0 -10,0"/><polyline fill="none" stroke="#444" stroke-width="0.5" stroke-miterlimit="10" points="0,10 0,-10"/></g><circle fill="#c00" class="firstmarker" stroke="none" stroke-miterlimit="10" cx="49.4904" cy="-7.1205" r="3.2708"/><g class="geartext"><g class="text"><polyline fill="none" stroke="#444" stroke-width="0.5" stroke-linecap="square" stroke-miterlimit="1"  points="-18.97 -24.26 -19.72 -23.65 -20.45 -23.03 -21.15 -22.38 -21.84 -21.71 "/><polyline fill="none" stroke="#444" stroke-width="0.5" stroke-linecap="square" stroke-miterlimit="1"  points="-19.17 -21.59 -21.72 -24.47 "/><polyline fill="none" stroke="#444" stroke-width="0.5" stroke-linecap="square" stroke-miterlimit="1"  points="-20.15 -25.78 -20.33 -24.39 -20.45 -23.03 -20.49 -21.68 -20.48 -20.35 "/><polyline fill="none" stroke="#444" stroke-width="0.5" stroke-linecap="square" stroke-miterlimit="1"  points="-17.78 -22.74 -19.1 -22.92 -20.45 -23.03 -21.82 -23.08 -23.21 -23.06 "/><polyline fill="none" stroke="#444" stroke-width="0.5" stroke-linecap="square" stroke-miterlimit="1"  points="-12.79 -24.8 -13.56 -24.39 -14.31 -23.96 -15.06 -23.5 -15.78 -23.02 -16.87 -24.6 -16.61 -25.93 -15.79 -26.43 -14.96 -26.92 -14.55 -28.22 -14.99 -29.08 -16.36 -29.44 -17.28 -28.91 -18.17 -28.36 -18.5 -26.98 "/><polyline fill="none" stroke="#444" stroke-width="0.5" stroke-linecap="square" stroke-miterlimit="1"  points="-4.44 -33.39 -3.68 -27.66 -4.78 -28.96 -5.96 -30.21 -7.23 -31.42 -8.57 -32.57 -7.1 -26.99 "/><polyline fill="none" stroke="#444" stroke-width="0.5" stroke-linecap="square" stroke-miterlimit="1"  points="1.75 -31.71 0.76 -31.75 -0.23 -31.76 -1.22 -31.73 -2.22 -31.68 "/><polyline fill="none" stroke="#444" stroke-width="0.5" stroke-linecap="square" stroke-miterlimit="1"  points="1.65 -29.79 0.71 -29.82 -0.22 -29.83 -1.15 -29.81 -2.08 -29.76 "/><polyline fill="none" stroke="#444" stroke-width="0.5" stroke-linecap="square" stroke-miterlimit="1"  points="3.84 -32.49 5 -33.31 4.14 -27.6 "/><polyline fill="none" stroke="#444" stroke-width="0.5" stroke-linecap="square" stroke-miterlimit="1"  points="5 -27.46 4.14 -27.6 3.28 -27.71 "/><polyline fill="none" stroke="#444" stroke-width="0.5" stroke-linecap="square" stroke-miterlimit="1"  points="10.03 -26.04 9.21 -26.34 8.38 -26.62 7.55 -26.87 6.71 -27.09 7.17 -28.96 8.33 -29.65 9.25 -29.37 10.17 -29.07 11.41 -29.63 11.76 -30.53 11.12 -31.79 10.12 -32.12 9.11 -32.42 7.86 -31.76 "/><polyline fill="none" stroke="#444" stroke-width="0.5" stroke-linecap="square" stroke-miterlimit="1"  points="17.04 -25.65 17.83 -25.1 18.61 -24.53 19.37 -23.94 20.73 -24.05 21.36 -24.78 21.18 -26.19 20.35 -26.83 19.51 -27.46 18.64 -28.05 15.44 -23.24 "/><polyline fill="none" stroke="#444" stroke-width="0.5" stroke-linecap="square" stroke-miterlimit="1"  points="19.51 -19.96 22.2 -22.71 "/><polyline fill="none" stroke="#444" stroke-width="0.5" stroke-linecap="square" stroke-miterlimit="1"  points="22.87 -23.4 23.54 -24.09 "/><polyline fill="none" stroke="#444" stroke-width="0.5" stroke-linecap="square" stroke-miterlimit="1"  points="23.67 -16.52 22.37 -16.68 22.59 -17.97 26.36 -20.96 "/><polyline fill="none" stroke="#444" stroke-width="0.5" stroke-linecap="square" stroke-miterlimit="1"  points="26.04 -18.18 25.46 -18.98 24.85 -19.77 24.22 -20.53 23.57 -21.28 "/><polyline fill="none" stroke="#444" stroke-width="0.5" stroke-linecap="square" stroke-miterlimit="1"  points="25.46 -11.43 25.09 -12.22 24.7 -12.99 24.28 -13.76 24.66 -15.01 26.3 -16.01 27.63 -15.66 28.1 -14.79 28.55 -13.9 28.97 -13 "/><polyline fill="none" stroke="#444" stroke-width="0.5" stroke-linecap="square" stroke-miterlimit="1"  points="27.93 -10.49 29.15 -9.92 30.37 -9.29 30.64 -8.34 29.95 -7.15 27.14 -6.48 "/><polyline fill="none" stroke="#444" stroke-width="0.5" stroke-linecap="square" stroke-miterlimit="1"  points="26.12 -9.81 31.53 -11.85 "/><polyline fill="none" stroke="#444" stroke-width="0.5" stroke-linecap="square" stroke-miterlimit="1"  points="27.9 -0.44 27.9 0.44 27.88 1.31 27.82 2.18 28.7 3.15 32.52 3.57 33.58 2.63 33.64 1.58 33.68 0.53 33.68 -0.53 "/><polyline fill="none" stroke="#444" stroke-width="0.5" stroke-linecap="square" stroke-miterlimit="1"  points="33.68 0.53 27.9 0.44 "/><polyline fill="none" stroke="#444" stroke-width="0.5" stroke-linecap="square" stroke-miterlimit="1"  points="30.37 9.29 30.64 8.34 30.89 7.37 31.1 6.41 31.29 5.43 "/><polyline fill="none" stroke="#444" stroke-width="0.5" stroke-linecap="square" stroke-miterlimit="1"  points="28.53 8.73 28.79 7.83 29.02 6.93 29.22 6.02 29.39 5.1 "/><polyline fill="none" stroke="#444" stroke-width="0.5" stroke-linecap="square" stroke-miterlimit="1"  points="30.63 11.51 31.14 12.82 25.8 10.63 "/><polyline fill="none" stroke="#444" stroke-width="0.5" stroke-linecap="square" stroke-miterlimit="1"  points="25.46 11.43 25.8 10.63 26.12 9.81 "/><polyline fill="none" stroke="#444" stroke-width="0.5" stroke-linecap="square" stroke-miterlimit="1"  points="24.69 18.41 24.1 19.17 23.49 19.91 22.86 20.64 22.89 22.01 23.59 22.67 25 22.57 25.69 21.78 26.36 20.96 27 20.13 22.37 16.68 "/><polyline fill="none" stroke="#444" stroke-width="0.5" stroke-linecap="square" stroke-miterlimit="1"  points="18.39 25.89 19.19 25.3 19.97 24.69 20.73 24.05 21.48 23.39 "/><polyline fill="none" stroke="#444" stroke-width="0.5" stroke-linecap="square" stroke-miterlimit="1"  points="17.28 24.32 18.03 23.77 18.76 23.19 19.48 22.6 20.17 21.98 "/><polyline fill="none" stroke="#444" stroke-width="0.5" stroke-linecap="square" stroke-miterlimit="1"  points="17.25 27.8 16.85 29.16 13.96 24.16 "/><polyline fill="none" stroke="#444" stroke-width="0.5" stroke-linecap="square" stroke-miterlimit="1"  points="13.2 24.59 13.96 24.16 14.71 23.72 "/><polyline fill="none" stroke="#444" stroke-width="0.5" stroke-linecap="square" stroke-miterlimit="1"  points="8.38 26.62 9.21 26.34 10.03 26.04 10.84 25.72 11.64 25.36 12.44 27.11 11.96 28.38 11.07 28.74 10.17 29.07 9.54 30.29 9.83 31.21 11.12 31.79 12.11 31.43 13.08 31.04 13.64 29.74 "/><polyline fill="none" stroke="#444" stroke-width="0.5" stroke-linecap="square" stroke-miterlimit="1"  points="2.66 30.68 1.7 30.75 0.74 30.78 -0.23 30.79 -1.22 31.73 -1.26 32.69 -0.25 33.68 0.81 33.67 1.86 33.63 2.91 33.55 2.41 27.8 "/><polyline fill="none" stroke="#444" stroke-width="0.5" stroke-linecap="square" stroke-miterlimit="1"  points="-2.82 27.76 -3.01 29.68 -4.19 31.48 -5.48 33.23 -6.15 31.16 -6.69 29.07 -6.26 27.2 "/><polyline fill="none" stroke="#444" stroke-width="0.5" stroke-linecap="square" stroke-miterlimit="1"  points="-3.01 29.68 -3.94 29.57 -4.86 29.43 -5.78 29.27 -6.69 29.07 "/><polyline fill="none" stroke="#444" stroke-width="0.5" stroke-linecap="square" stroke-miterlimit="1"  points="-12.76 29.08 -11.85 29.46 -10.92 29.82 -9.98 30.15 -9.04 30.44 "/><polyline fill="none" stroke="#444" stroke-width="0.5" stroke-linecap="square" stroke-miterlimit="1"  points="-11.99 27.32 -11.13 27.68 -10.26 28.01 -9.38 28.32 -8.49 28.6 "/><polyline fill="none" stroke="#444" stroke-width="0.5" stroke-linecap="square" stroke-miterlimit="1"  points="-15.78 23.02 -15.06 23.5 -14.31 23.96 -13.56 24.39 -12.79 24.8 -13.67 26.51 -14.96 26.92 -15.79 26.43 -16.61 25.93 -17.96 26.19 -18.5 26.98 -18.17 28.36 -17.28 28.91 -16.36 29.44 -14.99 29.08 "/><polyline fill="none" stroke="#444" stroke-width="0.5" stroke-linecap="square" stroke-miterlimit="1"  points="-19.83 20.98 -18.53 20.87 -17.87 21.44 -17.78 22.74 -20.15 25.78 -21.56 25.87 -22.36 25.19 -22.48 23.78 -19.83 20.98 "/></g></g><g class="guides gearguides" opacity="0.2"><circle class="pitch" fill="none" stroke="#f00" stroke-miterlimit="10" cx="0" cy="0" r="50"/><circle class="outer" fill="none" stroke="#ccc" stroke-miterlimit="10" stroke-dasharray="2,2" cx="0" cy="0" r="58.33"/><circle class="base" fill="none" stroke="#00f" stroke-miterlimit="10" stroke-dasharray="2,2" cx="0" cy="0" r="46.98"/></g></svg>