<?xml version="1.0" encoding="utf-8"?><!-- Generator: Iparigrafika Gear Generator by Abel Vincze http://geargenerator.com/ --><svg version="1.2" class="svggear" xmlns="http://www.w3.org/2000/svg" xmlns:xlink="http://www.w3.org/1999/xlink" x="0px" y="0px" width="68px" height="68px" viewBox="-34 -34 68 68" overflow="scroll" xml:space="preserve"><polygon id="gearpoly6" data-id="6" class="gear" fill="#ddd" stroke="#444" stroke-width="1" stroke-miterlimit="10" points="15.4167,0 23.4959,0 23.5594,-0.0034 23.7017,-0.0187 23.9213,-0.0552 24.216,-0.1218 24.5827,-0.2274 25.0177,-0.3804 25.5164,-0.5891 26.0735,-0.8613 26.6833,-1.2044 27.3389,-1.6252 28.0334,-2.1302 28.7587,-2.7251 29.5067,-3.4151 30.2686,-4.2045 31.035,-5.0973 31.7965,-6.0963 32.5431,-7.2038 32.3139,-8.1806 31.9016,-9.6642 31.594,-10.6191 30.3831,-11.1827 29.2154,-11.6456 28.0982,-12.0149 27.0382,-12.2981 26.0415,-12.5032 25.1132,-12.6386 24.2578,-12.7129 23.479,-12.7351 22.7797,-12.7144 22.162,-12.6601 21.6271,-12.5816 21.1755,-12.4883 20.8069,-12.3895 20.5201,-12.2945 20.3132,-12.2125 20.1834,-12.1522 20.1273,-12.1223 13.2064,-7.954 7.7083,-13.3512 11.7479,-20.3481 11.7768,-20.4047 11.8346,-20.5356 11.9128,-20.744 12.0025,-21.0325 12.0944,-21.4029 12.1794,-21.8561 12.248,-22.3924 12.2909,-23.011 12.2986,-23.7106 12.262,-24.4888 12.1719,-25.3427 12.0193,-26.2683 11.7958,-27.2611 11.493,-28.3156 11.1031,-29.4258 10.6187,-30.5847 10.0329,-31.785 9.0724,-32.075 7.5814,-32.4597 6.6006,-32.6708 5.5071,-31.9038 4.5223,-31.124 3.6439,-30.3412 2.8687,-29.5648 2.1927,-28.8042 1.6113,-28.068 1.1192,-27.3643 0.7106,-26.701 0.3788,-26.085 0.117,-25.5229 -0.0824,-25.0204 -0.2274,-24.5827 -0.3261,-24.2141 -0.3873,-23.9182 -0.4197,-23.698 -0.4324,-23.5554 -0.4346,-23.4919 -0.2852,-15.414 -7.7083,-13.3512 -11.748,-20.348 -11.7826,-20.4014 -11.8671,-20.5169 -12.0085,-20.6888 -12.2135,-20.9107 -12.4883,-21.1755 -12.8383,-21.4757 -13.2684,-21.8033 -13.7827,-22.1497 -14.3846,-22.5062 -15.0769,-22.8636 -15.8615,-23.2125 -16.7394,-23.5432 -17.7109,-23.846 -18.7755,-24.1111 -19.9319,-24.3285 -21.1778,-24.4884 -22.5102,-24.5812 -23.2415,-23.8944 -24.3202,-22.7956 -24.9934,-22.0516 -24.876,-20.7212 -24.693,-19.4785 -24.4543,-18.3263 -24.1696,-17.2668 -23.8488,-16.301 -23.5019,-15.4294 -23.1386,-14.6514 -22.7685,-13.9659 -22.4009,-13.3706 -22.045,-12.8628 -21.7095,-12.4388 -21.4029,-12.0944 -21.1331,-11.8246 -20.9074,-11.6237 -20.7329,-11.4855 -20.6158,-11.4032 -20.5619,-11.3696 -13.4915,-7.46 -15.4167,0 -23.4959,0 -23.5594,0.0034 -23.7017,0.0187 -23.9213,0.0552 -24.216,0.1218 -24.5827,0.2274 -25.0177,0.3804 -25.5164,0.5891 -26.0735,0.8613 -26.6833,1.2044 -27.3389,1.6252 -28.0334,2.1302 -28.7587,2.7251 -29.5067,3.4151 -30.2686,4.2045 -31.035,5.0973 -31.7965,6.0963 -32.5431,7.2038 -32.3139,8.1806 -31.9016,9.6642 -31.594,10.6191 -30.3831,11.1827 -29.2154,11.6456 -28.0982,12.0149 -27.0382,12.2981 -26.0415,12.5032 -25.1132,12.6386 -24.2578,12.7129 -23.479,12.7351 -22.7797,12.7144 -22.162,12.6601 -21.6271,12.5816 -21.1755,12.4883 -20.8069,12.3895 -20.5201,12.2945 -20.3132,12.2125 -20.1834,12.1522 -20.1273,12.1223 -13.2064,7.954 -7.7083,13.3512 -11.7479,20.3481 -11.7768,20.4047 -11.8346,20.5356 -11.9128,20.744 -12.0025,21.0325 -12.0944,21.4029 -12.1794,21.8561 -12.248,22.3924 -12.2909,23.011 -12.2986,23.7106 -12.262,24.4888 -12.1719,25.3427 -12.0193,26.2683 -11.7958,27.2611 -11.493,28.3156 -11.1031,29.4258 -10.6187,30.5847 -10.0329,31.785 -9.0724,32.075 -7.5814,32.4597 -6.6006,32.6708 -5.5071,31.9038 -4.5223,31.124 -3.6439,30.3412 -2.8687,29.5648 -2.1927,28.8042 -1.6113,28.068 -1.1192,27.3643 -0.7106,26.701 -0.3788,26.085 -0.117,25.5229 0.0824,25.0204 0.2274,24.5827 0.3261,24.2141 0.3873,23.9182 0.4197,23.698 0.4324,23.5554 0.4346,23.4919 0.2852,15.414 7.7083,13.3512 11.748,20.348 11.7826,20.4014 11.8671,20.5169 12.0085,20.6888 12.2135,20.9107 12.4883,21.1755 12.8383,21.4757 13.2684,21.8033 13.7827,22.1497 14.3846,22.5062 15.0769,22.8636 15.8615,23.2125 16.7394,23.5432 17.7109,23.846 18.7755,24.1111 19.9319,24.3285 21.1778,24.4884 22.5102,24.5812 23.2415,23.8944 24.3202,22.7956 24.9934,22.0516 24.876,20.7212 24.693,19.4785 24.4543,18.3263 24.1696,17.2668 23.8488,16.301 23.5019,15.4294 23.1386,14.6514 22.7685,13.9659 22.4009,13.3706 22.045,12.8628 21.7095,12.4388 21.4029,12.0944 21.1331,11.8246 20.9074,11.6237 20.7329,11.4855 20.6158,11.4032 20.5619,11.3696 13.4915,7.46 "/><g class="guides"><polyline fill="none" stroke="#444" stroke-width="0.5" stroke-miterlimit="10" points="10,0 -10,0"/><polyline fill="none" stroke="#444" stroke-width="0.5" stroke-miterlimit="10" points="0,10 0,-10"/></g><circle fill="#c00" class="firstmarker" stroke="none" stroke-miterlimit="10" cx="24.0873" cy="-6.6936" r="3.2708"/><g class="geartext"><g class="text"><polyline fill="none" stroke="#444" stroke-width="0.5" stroke-linecap="square" stroke-miterlimit="1"  points="-7.93 -8.66 -8.2 -8.41 -8.46 -8.15 -8.71 -7.88 -8.95 -7.6 "/><polyline fill="none" stroke="#444" stroke-width="0.5" stroke-linecap="square" stroke-miterlimit="1"  points="-7.93 -7.64 -8.99 -8.66 "/><polyline fill="none" stroke="#444" stroke-width="0.5" stroke-linecap="square" stroke-miterlimit="1"  points="-8.43 -9.2 -8.46 -8.67 -8.46 -8.15 -8.44 -7.63 -8.39 -7.13 "/><polyline fill="none" stroke="#444" stroke-width="0.5" stroke-linecap="square" stroke-miterlimit="1"  points="-7.44 -8.12 -7.95 -8.15 -8.46 -8.15 -8.98 -8.13 -9.51 -8.08 "/><polyline fill="none" stroke="#444" stroke-width="0.5" stroke-linecap="square" stroke-miterlimit="1"  points="-7.38 -9.14 -7.09 -9.37 -6.79 -9.58 -6.49 -9.79 -5.99 -9.68 -5.8 -9.36 -5.88 -8.87 -6.16 -8.68 -6.42 -8.49 -6.92 -8.57 -7.61 -9.42 -7.53 -9.95 -7.43 -10.48 -7.1 -10.71 "/><polyline fill="none" stroke="#444" stroke-width="0.5" stroke-linecap="square" stroke-miterlimit="1"  points="-2.68 -12.56 -2.22 -10.41 -2.68 -10.87 -3.17 -11.31 -3.68 -11.73 -4.23 -12.13 -3.5 -10.05 "/><polyline fill="none" stroke="#444" stroke-width="0.5" stroke-linecap="square" stroke-miterlimit="1"  points="-0.28 -12.11 -0.66 -12.1 -1.03 -12.07 -1.41 -12.03 -1.79 -11.98 "/><polyline fill="none" stroke="#444" stroke-width="0.5" stroke-linecap="square" stroke-miterlimit="1"  points="-0.26 -11.38 -0.62 -11.36 -0.97 -11.34 -1.32 -11.3 -1.68 -11.25 "/><polyline fill="none" stroke="#444" stroke-width="0.5" stroke-linecap="square" stroke-miterlimit="1"  points="0.46 -11.74 0.83 -11.72 1.2 -11.68 1.56 -11.64 1.86 -11.23 1.8 -10.86 1.41 -10.55 1.08 -10.59 0.75 -10.62 0.44 -11 0.48 -12.1 0.88 -12.45 1.31 -12.78 1.71 -12.73 "/><polyline fill="none" stroke="#444" stroke-width="0.5" stroke-linecap="square" stroke-miterlimit="1"  points="4.39 -10.89 4.73 -10.75 5.06 -10.6 5.39 -10.43 5.9 -10.58 6.07 -10.9 5.9 -11.41 5.54 -11.59 5.17 -11.76 4.8 -11.91 3.98 -9.87 "/><polyline fill="none" stroke="#444" stroke-width="0.5" stroke-linecap="square" stroke-miterlimit="1"  points="5.75 -8.96 6.54 -10.19 "/><polyline fill="none" stroke="#444" stroke-width="0.5" stroke-linecap="square" stroke-miterlimit="1"  points="6.74 -10.5 6.94 -10.81 "/><polyline fill="none" stroke="#444" stroke-width="0.5" stroke-linecap="square" stroke-miterlimit="1"  points="7.57 -7.99 7.08 -7.95 7.06 -8.45 8.24 -9.86 "/><polyline fill="none" stroke="#444" stroke-width="0.5" stroke-linecap="square" stroke-miterlimit="1"  points="8.33 -8.79 8.05 -9.05 7.76 -9.3 7.47 -9.54 7.17 -9.76 "/><polyline fill="none" stroke="#444" stroke-width="0.5" stroke-linecap="square" stroke-miterlimit="1"  points="8.63 -6.23 8.43 -6.49 8.23 -6.76 8.01 -7.01 8.06 -7.51 8.59 -8.01 9.12 -7.98 9.36 -7.69 9.6 -7.39 9.82 -7.09 "/><polyline fill="none" stroke="#444" stroke-width="0.5" stroke-linecap="square" stroke-miterlimit="1"  points="9.63 -6.07 10.13 -5.95 10.63 -5.81 10.81 -5.47 10.64 -4.98 9.64 -4.51 "/><polyline fill="none" stroke="#444" stroke-width="0.5" stroke-linecap="square" stroke-miterlimit="1"  points="9 -5.68 10.87 -6.85 "/><polyline fill="none" stroke="#444" stroke-width="0.5" stroke-linecap="square" stroke-miterlimit="1"  points="10.39 -2.31 10.46 -1.98 10.52 -1.66 10.56 -1.33 10.96 -1.03 12.43 -1.17 12.75 -1.6 12.69 -2 12.62 -2.39 12.54 -2.79 "/><polyline fill="none" stroke="#444" stroke-width="0.5" stroke-linecap="square" stroke-miterlimit="1"  points="12.62 -2.39 10.46 -1.98 "/><polyline fill="none" stroke="#444" stroke-width="0.5" stroke-linecap="square" stroke-miterlimit="1"  points="12.06 1.13 12.09 0.76 12.11 0.38 12.11 0 12.11 -0.38 "/><polyline fill="none" stroke="#444" stroke-width="0.5" stroke-linecap="square" stroke-miterlimit="1"  points="11.33 1.07 11.36 0.71 11.37 0.36 11.38 0 11.37 -0.36 "/><polyline fill="none" stroke="#444" stroke-width="0.5" stroke-linecap="square" stroke-miterlimit="1"  points="10.67 2.72 10.39 2.31 10.46 1.98 10.88 1.71 12.33 1.94 12.62 2.39 12.54 2.79 12.09 3.09 10.67 2.72 "/><polyline fill="none" stroke="#444" stroke-width="0.5" stroke-linecap="square" stroke-miterlimit="1"  points="10.48 3.39 10.13 3.27 "/><polyline fill="none" stroke="#444" stroke-width="0.5" stroke-linecap="square" stroke-miterlimit="1"  points="11.27 6.16 11.46 5.8 11.64 5.44 11.8 5.08 11.95 4.71 11.27 4.44 11.13 4.79 10.97 5.13 10.81 5.47 10.31 5.63 9.66 5.28 9.5 4.81 9.64 4.51 9.78 4.21 10.25 4.03 "/><polyline fill="none" stroke="#444" stroke-width="0.5" stroke-linecap="square" stroke-miterlimit="1"  points="8.84 7.73 8.59 8.01 8.34 8.27 8.08 8.53 8.05 9.05 8.3 9.32 8.83 9.33 9.12 9.05 9.4 8.76 9.67 8.46 8.01 7.01 "/><polyline fill="none" stroke="#444" stroke-width="0.5" stroke-linecap="square" stroke-miterlimit="1"  points="6.22 10.39 6.54 10.19 6.86 9.98 7.17 9.76 7.47 9.54 "/><polyline fill="none" stroke="#444" stroke-width="0.5" stroke-linecap="square" stroke-miterlimit="1"  points="5.85 9.76 6.15 9.58 6.44 9.38 6.73 9.17 7.02 8.96 "/><polyline fill="none" stroke="#444" stroke-width="0.5" stroke-linecap="square" stroke-miterlimit="1"  points="5.73 11.09 5.54 11.59 4.59 9.6 "/><polyline fill="none" stroke="#444" stroke-width="0.5" stroke-linecap="square" stroke-miterlimit="1"  points="4.29 9.74 4.59 9.6 4.89 9.46 "/><polyline fill="none" stroke="#444" stroke-width="0.5" stroke-linecap="square" stroke-miterlimit="1"  points="2.4 10.37 2.72 10.29 3.04 10.2 3.36 10.1 3.67 9.99 3.92 10.68 3.7 11.15 3.35 11.26 3 11.36 2.73 11.8 2.81 12.16 3.28 12.42 3.67 12.31 4.05 12.19 4.3 11.71 "/><polyline fill="none" stroke="#444" stroke-width="0.5" stroke-linecap="square" stroke-miterlimit="1"  points="0.1 11.75 -0.27 11.74 -0.64 11.73 -1 11.7 -1.41 12.03 -1.45 12.4 -1.1 12.8 -0.7 12.83 -0.29 12.84 0.11 12.85 0.09 10.64 "/><polyline fill="none" stroke="#444" stroke-width="0.5" stroke-linecap="square" stroke-miterlimit="1"  points="-1.9 10.47 -2.03 11.2 -2.53 11.85 -3.08 12.47 -3.27 11.66 -3.41 10.86 -3.19 10.16 "/><polyline fill="none" stroke="#444" stroke-width="0.5" stroke-linecap="square" stroke-miterlimit="1"  points="-2.03 11.2 -2.38 11.13 -2.72 11.05 -3.07 10.96 -3.41 10.86 "/><polyline fill="none" stroke="#444" stroke-width="0.5" stroke-linecap="square" stroke-miterlimit="1"  points="-5.72 10.68 -5.38 10.85 -5.04 11.01 -4.69 11.17 -4.34 11.31 "/><polyline fill="none" stroke="#444" stroke-width="0.5" stroke-linecap="square" stroke-miterlimit="1"  points="-5.37 10.03 -5.06 10.19 -4.74 10.35 -4.41 10.49 -4.08 10.62 "/><polyline fill="none" stroke="#444" stroke-width="0.5" stroke-linecap="square" stroke-miterlimit="1"  points="-6.69 8.28 -6.42 8.49 -6.16 8.68 -5.88 8.87 -5.6 9.05 -5.99 9.68 -6.49 9.79 -6.79 9.58 -7.09 9.37 -7.61 9.42 -7.84 9.71 -7.75 10.24 -7.43 10.48 -7.1 10.71 -6.57 10.61 "/><polyline fill="none" stroke="#444" stroke-width="0.5" stroke-linecap="square" stroke-miterlimit="1"  points="-8.17 7.39 -7.67 7.38 -7.43 7.62 -7.44 8.12 -8.43 9.2 -8.97 9.2 -9.25 8.91 -9.26 8.37 -8.17 7.39 "/></g></g><g class="guides gearguides" opacity="0.2"><circle class="pitch" fill="none" stroke="#f00" stroke-miterlimit="10" cx="0" cy="0" r="25"/><circle class="outer" fill="none" stroke="#ccc" stroke-miterlimit="10" stroke-dasharray="2,2" cx="0" cy="0" r="33.33"/><circle class="base" fill="none" stroke="#00f" stroke-miterlimit="10" stroke-dasharray="2,2" cx="0" cy="0" r="23.49"/></g></svg>