<svg xmlns="http://www.w3.org/2000/svg" width="43" height="32" viewBox="0 0 43 32"><path d="M0 0h42.667v10.694H0V0z" fill="#00C4FF"/><path d="M0 10.65h42.667v10.696H0V10.65z" fill="#FFF"/><path d="M0 21.302h42.667v10.695H0V21.302z" fill="#00C4FF"/><path d="M24.224 16.134c0 1.573-1.3 2.848-2.906 2.848s-2.906-1.275-2.906-2.848 1.3-2.848 2.906-2.848 2.906 1.275 2.906 2.848z" fill="#FFD600"/><path d="M19.55 14.948c.193-.152.82-.158 1.467.198.098-.023.16-.09.08-.18-.486-.165-1.052-.372-1.574-.216-.142.098-.107.16.027.198zM22.99 14.948c-.193-.152-.82-.158-1.467.198-.098-.023-.16-.09-.08-.18.486-.165 1.052-.372 1.574-.216.142.098.107.16-.027.198z" fill="#EFC000"/><path d="M19.293 15.457c.637-.396 1.48-.19 1.832.026-.516-.095-.525-.138-.898-.146-.264.01-.652-.017-.934.12z" fill="#F0BF00"/><path d="M20.585 15.606c-.092.1-.318.16-.504.134s-.26-.13-.17-.232c.093-.1.32-.16.505-.134s.262.13.17.232z" fill="rgba(0, 0, 0, 0.36803)"/><path d="M20.127 15.476c.01.024-.02.055-.066.07s-.09.008-.1-.015c-.01-.023.02-.054.067-.07s.09-.007.1.016zM20.337 19.25c-.337.855.032 1.26-.133 1.72-.16.444-.85 1.542-.324 2.02.418.018-.072-.606.763-1.762.387-.54-.1-.884.307-1.946.038-.09-.56-.167-.614-.032zM21.05 19.315c-.13.96-.052 3.904.257 3.787.343.107.388-2.886.357-3.77-.004-.1-.596-.16-.614-.017z" fill="#FFD700"/><path d="M20.207 17.466c.308-.034.826-.262 1.01-.074.16-.17.718.05 1.077.074-.26.154-.788.05-1.04.212-.244-.145-.784-.012-1.047-.212zM20.704 17.734c.467.185.572.157 1.077.018-.104.268-.37.324-.523.314-.157-.01-.372.01-.553-.332z" fill="#F0BF00"/><path d="M19.744 18.987c-.376.84-.933.88-1.147 1.32-.206.424-.505 1.677-1.225 1.662-.312-.27.488-.385.725-1.777.114-.65.71-.563 1.185-1.6.038-.09.52.262.462.394zM18.365 17.69c-.865.366-.907.905-1.36 1.113-.44.2-1.73.49-1.715 1.188.278.303.396-.473 1.832-.703.67-.11.58-.69 1.65-1.15.093-.036-.27-.504-.407-.446zM18.095 17.087c-.88.33-1.3-.024-1.775.14-.456.155-1.585.83-2.08.324-.022-.404.625.067 1.813-.75.556-.378.913.094 2.006-.308.093-.037.174.542.036.595zM20.37 19.178c-.274.93-1.555 3.602-1.79 3.374-.36-.034.828-2.797 1.22-3.597.045-.088.613.084.57.222z" fill="#FFD700"/><path d="M19.16 18.59c-.602.77-2.79 2.817-2.926 2.522-.322-.157 1.813-2.32 2.477-2.93.075-.066.54.293.45.407zM18.4 17.603c-.86.49-3.687 1.573-3.696 1.25-.236-.264 2.59-1.474 3.442-1.792.095-.033.384.47.255.542zM24.608 16.412c.99.125 4.03.05 3.908-.25.11-.33-2.978-.375-3.89-.345-.102.004-.165.577-.018.595zM22.317 19.293c.337.854-.032 1.26.133 1.72.16.443.85 1.54.324 2.018-.418.02.072-.604-.763-1.76-.386-.54.102-.884-.306-1.946-.038-.09.56-.167.614-.032zM22.934 19.03c.376.838.933.878 1.147 1.32.207.423.506 1.676 1.226 1.66.312-.27-.488-.383-.725-1.775-.113-.65-.71-.563-1.184-1.6-.038-.09-.52.262-.462.394zM24.314 17.712c.865.365.907.904 1.36 1.112.44.2 1.73.49 1.715 1.188-.28.302-.397-.474-1.833-.704-.67-.11-.58-.69-1.65-1.15-.093-.036.27-.504.407-.446zM24.56 17.087c.88.33 1.3-.024 1.774.14.456.155 1.585.83 2.08.324.022-.404-.625.067-1.813-.75-.555-.378-.912.094-2.005-.308-.094-.037-.175.542-.037.595z" fill="#FFD700"/><path d="M22.302 19.22c.275.93 1.556 3.603 1.792 3.375.36-.034-.83-2.797-1.222-3.597-.044-.088-.612.084-.57.222zM23.46 18.59c.603.77 2.79 2.817 2.927 2.522.322-.157-1.813-2.32-2.477-2.93-.074-.066-.54.293-.45.407zM24.29 17.603c.86.49 3.688 1.573 3.697 1.25.236-.264-2.59-1.474-3.442-1.792-.095-.033-.384.47-.255.542zM18.036 15.852c-.99-.125-4.03-.05-3.908.25-.11.33 2.978.375 3.89.345.102-.004.165-.577.018-.595zM20.33 12.97c-.338-.854.03-1.26-.134-1.72-.16-.443-.85-1.54-.324-2.018.418-.02-.072.605.763 1.76.387.542-.1.885.307 1.947.038.09-.56.166-.614.03zM19.71 13.235c-.375-.84-.932-.88-1.146-1.32-.206-.424-.505-1.677-1.225-1.662-.313.27.487.384.724 1.776.114.648.71.562 1.185 1.598.037.09.52-.26.46-.393zM18.33 14.552c-.864-.365-.906-.904-1.36-1.112-.438-.2-1.73-.49-1.714-1.188.278-.302.396.474 1.832.704.67.11.58.69 1.65 1.15.093.036-.27.504-.407.446zM18.086 15.176c-.88-.33-1.3.024-1.775-.14-.455-.155-1.584-.83-2.08-.324-.02.405.626-.066 1.814.75.556.38.913-.093 2.006.31.094.036.175-.543.037-.596z" fill="#FFD700"/><path d="M20.342 13.043c-.275-.93-1.556-3.602-1.792-3.374-.36.033.83 2.796 1.222 3.596.044.088.612-.084.57-.222zM19.185 13.673c-.602-.77-2.79-2.817-2.926-2.522-.323.158 1.812 2.32 2.476 2.93.074.067.54-.292.45-.406zM18.356 14.66c-.86-.49-3.688-1.572-3.697-1.25-.237.264 2.588 1.474 3.44 1.792.096.034.385-.47.256-.54zM21.59 12.947c.13-.96.052-3.904-.257-3.787-.343-.107-.388 2.886-.357 3.77.004.1.596.16.614.017zM24.563 15.17c.882-.327 1.3.03 1.775-.13.457-.154 1.59-.823 2.082-.314.02.405-.625-.07-1.817.74-.558.375-.912-.098-2.008.297-.094.037-.172-.543-.033-.595zM24.29 14.57c.866-.363.907-.903 1.362-1.11.438-.2 1.73-.49 1.715-1.187-.278-.302-.396.473-1.832.703-.67.11-.58.688-1.65 1.148-.094.037.27.505.406.448zM22.932 13.233c.376-.84.933-.88 1.148-1.32.206-.423.506-1.675 1.226-1.66.312.27-.49.383-.726 1.775-.114.65-.71.563-1.186 1.598-.038.09-.52-.26-.462-.393zM22.286 12.996c.342-.852-.025-1.26.143-1.72.16-.442.857-1.536.335-2.016-.417-.02.07.606-.774 1.756-.39.54.097.884-.318 1.944-.04.09.56.17.614.036z" fill="#FFD700"/><path d="M24.488 15.182c.96-.267 3.717-1.508 3.482-1.736-.035-.347-2.886.804-3.71 1.184-.092.043.086.593.228.552zM23.837 14.06c.796-.584 2.907-2.704 2.603-2.835-.162-.312-2.394 1.757-3.022 2.4-.07.072.3.523.42.435zM22.82 13.256c.505-.834 1.622-3.574 1.29-3.583-.273-.228-1.522 2.51-1.85 3.336-.035.09.484.37.56.246zM23.525 14.716h.267zM23.592 14.883h.267zM23.62 15.04h.294zM23.706 15.187H24zM23.726 15.344h.353zM23.717 15.5h.39zM23.773 15.677h.372zM23.754 15.852h.362zM23.755 16.018h.372zM23.658 16.212h.467zM23.697 16.434h.4zM23.688 16.59h.4zM23.62 16.803h.4zM23.61 16.988h.4zM23.497 17.19h.4zM23.383 17.358h.4zM23.278 17.55h.4zM23.154 17.736h.4z" fill="#FFD700"/><path d="M23.07 17.912h.4zM22.887 18.124h.4zM22.81 18.318h.256zM23.335 15.435c-.637-.396-1.48-.19-1.832.026.516-.094.525-.137.898-.145.265.01.653-.017.935.12z" fill="rgba(0, 105, 157, 0.86667)"/><path d="M22.795 15.57c-.095.096-.33.153-.52.127s-.272-.125-.177-.222c.095-.097.33-.154.52-.128s.272.125.177.222z" fill="rgba(0, 105, 157, 0.86667)"/><path d="M22.338 15.435c.01.024-.02.055-.066.07s-.09.008-.1-.015c-.01-.024.02-.055.066-.07s.09-.008.1.015z" fill="rgba(0, 105, 157, 0.86667)"/></svg>