<svg id="Layer_1" data-name="Layer 1" xmlns="http://www.w3.org/2000/svg" viewBox="0 0 800 600"><defs><style>.cls-1{fill:#fff;}</style></defs><title>Artboard 1</title><path class="cls-1" d="M496.87,251.52q9.81-8.76,9.82-21.15T496.3,208.71a33.9,33.9,0,0,0-22.78-8.64H442.59q-77.74,0-77.75,45.71,0,14,10.26,39.31t10.27,38.81q0,19.66-16.16,30.17-13.89,9.14-34.68,9.14a77.68,77.68,0,0,1-30.8-6.14q-18.65-8-18.66-22.16,0-12.51,13.53-18.9Q309,311.12,323,311.12h37.19l-9.14-20H303.37q-69.49,0-69.48,40.82,0,28,37.68,41.57,26.79,9.64,61.47,9.63,37.94,0,66.24-12.64,37.94-17.15,37.94-51.46,0-16-11.21-44.32T414.8,238.26q0-15.9,19-15.91c1,0,3.38.17,7.13.51a37.06,37.06,0,0,0-1,7.51q0,12.39,9.77,21.15a36.07,36.07,0,0,0,47.14,0Z"/><path class="cls-1" d="M748.92,356.19l23.17-65.11H726.64l-21.8,61a32.7,32.7,0,0,0-1.16,4.13H659.93l16.15-45.07a29.74,29.74,0,0,0,2-10q0-13.4-15.78-13.4-16.65,0-30.3,11.64l-37.43,31.8,9-24.92A21.68,21.68,0,0,0,605,299.1q0-11.38-14.78-11.39a49.41,49.41,0,0,0-32.31,11.9l-38.43,31.55,14.14-40.07H488.39l-29.92,85.14H484q9.51,0,15.89-5.39l49.84-41.56-10,26.91a25.32,25.32,0,0,0-1.88,9q0,12.77,17,12.77,11.37,0,27.41-13.27l42.32-35.43q-5.51,17.65-8.26,26.91a15.06,15.06,0,0,0-.51,3.89,15.26,15.26,0,0,0,5.07,11.2q5.08,4.94,11.08,4.94h50.84q14.75,0,22-7.12,3.83,7.12,16.16,7.12h49.46a34.79,34.79,0,0,0,16-3.76A25.76,25.76,0,0,0,800,356.19Z"/><path class="cls-1" d="M734.33,261q9.7,8.76,23.6,8.76A33.63,33.63,0,0,0,781.29,261q9.7-8.76,9.7-21.29t-9.7-21.16a33.65,33.65,0,0,0-23.35-8.76q-13.9,0-23.6,8.76t-9.71,21.16Q724.63,252.28,734.33,261Z"/><path class="cls-1" d="M385,184.95c-13.11-.23-96.05,1.85-107.7,2.08-15.53-.18-92.1,30.89-90.47,115.3s85.37,98.81,85.37,98.81c11.69,2.21,86.95,4.14,117,1.15,3.07,8.19,38.66,141.93,44.17,151.53-2.31,5.38-13.37,10.45-19.95-3s-35.6-109.48-39.19-119.61-10.93-12.89-20.63-12.71c-16.95,1.78-20,19.32-23.07,36.85S309,582.18,307.25,590.94c-17.75,0-12.36-20.86-12.36-20.86,1.79-7.8,14.88-109,15.72-115.81s3-19.47-13.5-20.61-21.84-.07-32.66,17.62-82.14,119.52-83.54,122.46c-3.44-2.37-14.16-4.59-6.19-18.81S242.62,452.18,245,447.28s8-16.65-5.28-23.19c-11.34-8-21-5.91-33.93,3.08S82,503.81,74.3,506.39c-2.48-2.86-8.44-9.55-.34-17.46,3.83-2.5,109.78-70.55,116-77s9.81-19.88-2.45-26.54-23.86-4.26-30.15-3.3S15.49,401.25,9.69,402.8c.41-4.36,1.63-16.52,14.68-19.2s122.37-21.29,126.71-22.82,20.8-3.32,12.11-26.44c-6-10.92-21.16-15.13-29.95-17.87S-.44,279.74-.44,279.74c.89-3.91,3.57-16.08,18.67-13s109.74,28,116.55,28.81,21.9,3.18,24.05-10.8-.45-23.63-6.85-28.36S35.58,159.65,35.58,159.65c4.28-4.45,11.41-12.35,21.26-4.77s98,73.81,98,73.81c5.88,3.29,12.81,9.94,25.69-1.47,6.79-9.53,6.83-23.43,2.78-31.6s-62.06-123-65.69-135.1c5.29-2,14.44-6.1,20.5,6.39S195,174.05,197,176.92c4.47,5.26,14.32,12.83,26.79,5.31s11.89-14.79,11.2-24.48S229.25,9.84,229.59,2.55c11.65.26,17,2.09,17.38,20.53s5.57,113,9.14,121.64,9.54,16.32,19.22,15.17,19.68-11.55,22-17.41S348.64,10.45,354.75.14c5.34-.11,12.64,1.21,10.91,11.92S320.82,127.95,320,134.27s-1.08,18.95,8.23,24.1a23.25,23.25,0,0,0,27.12-3.44C362,148.5,466.77,46,468.6,40.17c3.45,2.84,13.27,8.47.94,23.76s-81.8,86.51-86.54,92.42S370.67,171.63,385,184.95Z"/><path class="cls-1" d="M369,20.25c8.54,2.5,47.86,12.43,78.35,33.67-3.54,5.16-20.87,24.42-20.87,24.42C414.68,72.51,392,57.9,356,51.44,358.56,46.41,369,20.25,369,20.25Z"/><path class="cls-1" d="M141.57,65.58c3.78-2.26,54.27-35.44,85.09-42,.26,3.82.74,28.74.64,32.74-9.62,1.64-52.16,22.66-71.53,37.6Z"/><path class="cls-1" d="M122,82.15c2.32,5.24,11.94,22.52,13.68,27.58-2,2.59-38.18,38.56-49,62.26-3.35-2.65-24.93-18.06-24.93-18.06C65.39,144.94,95.75,100.13,122,82.15Z"/><path class="cls-1" d="M19.65,289.78c5.61,1.35,28.52,6.73,30.24,7.67-2,9,2.31,57,8.48,74.57-4.1,1.05-25.38,5.34-31.66,6.44C24.08,368.32,13.9,319,19.65,289.78Z"/><path class="cls-1" d="M35.67,403.34c5.32-.83,29-6.14,31.89-6.93,4.9,14.47,23.2,47.16,39.12,65.32-4.79,3.25-21.8,14.37-26.83,18.11C75.9,476.27,46.69,438.37,35.67,403.34Z"/><path class="cls-1" d="M198.77,556.4c3.76-6.14,16.46-27,16.46-27,10.76,4.39,48.74,11.18,78.33,10.12-.4,4.62-3.3,30.4-3.3,30.4C280.6,571.08,228.17,570.63,198.77,556.4Z"/><path class="cls-1" d="M320,537.57c9.23.06,65.21-16.06,76.2-24.53,1.29,3.62,9.24,26.28,10.27,29.41-7.45,3.3-44.35,21.72-89,25.25C317.78,561.88,320,537.57,320,537.57Z"/></svg>