<svg id="Layer_1" data-name="Layer 1" xmlns="http://www.w3.org/2000/svg" viewBox="0 0 500 500"><defs><style>.cls-1{fill:#fff;}</style></defs><title>Artboard 1</title><path class="cls-1" d="M217.71.91c-45,8.25-70.79,18-104.06,39.77-115.32,75-148.09,229.64-73,345.46,17,26.52,53.28,61.54,79,77,41.27,24.51,84,36.52,130.58,36.52,66.54,0,126.32-24.51,173.85-71.29,47.53-46.53,72-100.56,75.54-165.35,3.75-72.29-21-137.33-71.79-188.86-32-32.52-77.55-58.53-120.07-68.54C289.75,1.41,231.72-1.59,217.71.91Zm9,90.05L242,120l15.26-27.27,15.51-27V164l7,1.5c3.75.75,13.51,2,21.76,2.75,8.25,1,16.76,2.25,19,2.75,3.25,1,4.25-1.5,5.25-11.51,2.25-22.76,20.51-34.27,51.78-32,47.53,3.5,74.29,48.78,45.78,77-5,5.25-10.76,9.76-12.76,10.26-2.5,1-1,5.25,5.5,17.26,21,38.27,16.26,82.55-13.26,124.32-29.52,42.28-75.54,64.54-132.58,64-68.29-.5-132.33-26-156.84-62.54-17.76-26-22-53.53-14.51-89.55,2-9.51,3.75-17.76,3.75-18,0-.5-6.5-.75-14.51-.75-31,0-53-19.76-53-47.53,0-39,26.27-67.54,61.79-67.54,22,0,41.77,17.51,51.78,45.28,2.5,6.75,5,12.26,5.75,12.26,1.5,0,33.27-17.76,33.27-18.51,0-.5-7.75-19-17.51-41.77-9.51-22.51-17.51-42-17.51-43,0-1.25,11,7.5,24.51,19.26l24.26,21.26L205,95.72c1.75-18.51,4-33.77,5-33.77C210.71,61.95,218.21,75,226.72,91Z"/><path class="cls-1" d="M280.5,317.35c-19.51,6-25.77,15.76-14.76,23.26,18.26,13,67.54-7,51.28-20.76C311.77,315.85,290.76,314.35,280.5,317.35Z"/></svg>